<svg width="20" height="21" viewBox="0 0 20 21" fill="none" xmlns="http://www.w3.org/2000/svg">
<path d="M15 1.83989C16.5202 2.71758 17.7826 3.97997 18.6603 5.50017C19.538 7.02038 20 8.74483 20 10.5002C20 12.2556 19.5379 13.98 18.6602 15.5002C17.7825 17.0204 16.5201 18.2828 14.9999 19.1605C13.4797 20.0381 11.7552 20.5002 9.99984 20.5001C8.24446 20.5001 6.52002 20.038 4.99984 19.1603C3.47965 18.2826 2.21729 17.0202 1.33963 15.5C0.46198 13.9797 -4.45897e-05 12.2553 3.22765e-09 10.4999L0.00500012 10.1759C0.0610032 8.44888 0.563548 6.76585 1.46364 5.29089C2.36373 3.81592 3.63065 2.59934 5.14089 1.75977C6.65113 0.920205 8.35315 0.486289 10.081 0.50033C11.8089 0.514371 13.5036 0.97589 15 1.83989ZM15 7.49989H5C4.73478 7.49989 4.48043 7.60525 4.29289 7.79279C4.10536 7.98032 4 8.23468 4 8.49989V12.4999C4 12.7651 4.10536 13.0195 4.29289 13.207C4.48043 13.3945 4.73478 13.4999 5 13.4999H15C15.2652 13.4999 15.5196 13.3945 15.7071 13.207C15.8946 13.0195 16 12.7651 16 12.4999V8.49989C16 8.23468 15.8946 7.98032 15.7071 7.79279C15.5196 7.60525 15.2652 7.49989 15 7.49989Z" fill="#C7242D"/>
</svg>
