<svg width="48" height="48" viewBox="0 0 48 48" fill="none" xmlns="http://www.w3.org/2000/svg">
<path d="M32 4C32.4899 4.00006 32.9627 4.17991 33.3287 4.50543C33.6948 4.83095 33.9287 5.2795 33.986 5.766L34 6V8H36C37.5304 7.99991 39.003 8.58465 40.1165 9.63457C41.23 10.6845 41.9002 12.1202 41.99 13.648L42 14V38C42.0001 39.5304 41.4153 41.003 40.3654 42.1165C39.3155 43.23 37.8798 43.9002 36.352 43.99L36 44H12C10.4696 44.0001 8.99697 43.4153 7.88348 42.3654C6.76999 41.3155 6.09978 39.8798 6.01 38.352L6 38V14C5.99991 12.4696 6.58465 10.997 7.63457 9.88348C8.68448 8.76999 10.1202 8.09978 11.648 8.01L12 8H14V6C14.0006 5.49024 14.1958 4.99994 14.5457 4.62926C14.8956 4.25859 15.3739 4.03553 15.8828 4.00566C16.3917 3.97578 16.8928 4.14135 17.2837 4.46853C17.6746 4.79571 17.9258 5.25981 17.986 5.766L18 6V8H30V6C30 5.46957 30.2107 4.96086 30.5858 4.58579C30.9609 4.21071 31.4696 4 32 4ZM38 18H10V37.25C10 38.66 10.772 39.822 11.766 39.982L12 40H36C37.026 40 37.872 38.94 37.986 37.57L38 37.25V18Z" fill="#555555"/>
<path d="M24 24C24.4898 24.0001 24.9627 24.1799 25.3287 24.5054C25.6948 24.8309 25.9287 25.2795 25.986 25.766L26 26V32C25.9994 32.5098 25.8042 33.0001 25.4543 33.3707C25.1043 33.7414 24.6261 33.9645 24.1172 33.9943C23.6083 34.0242 23.1072 33.8587 22.7163 33.5315C22.3254 33.2043 22.0742 32.7402 22.014 32.234L22 32V28C21.4902 27.9994 20.9999 27.8042 20.6292 27.4543C20.2586 27.1044 20.0355 26.6261 20.0056 26.1172C19.9758 25.6083 20.1413 25.1072 20.4685 24.7163C20.7957 24.3254 21.2598 24.0742 21.766 24.014L22 24H24Z" fill="#555555"/>
</svg>
