<svg width="16" height="20" viewBox="0 0 16 20" fill="none" xmlns="http://www.w3.org/2000/svg">
<path d="M0 2.50014C1.89967e-05 2.36716 0.026561 2.23552 0.078073 2.11292C0.129585 1.99032 0.205033 1.87923 0.3 1.78614C1.38984 0.717783 2.84585 0.104877 4.37166 0.0721794C5.89746 0.0394822 7.37839 0.589452 8.513 1.61014L8.864 1.93815C9.59343 2.57724 10.5302 2.92957 11.5 2.92957C12.4698 2.92957 13.4066 2.57724 14.136 1.93815L14.385 1.71114C14.995 1.22814 15.912 1.61414 15.995 2.38714L16 2.50014V11.5001C16 11.6331 15.9734 11.7648 15.9219 11.8874C15.8704 12.01 15.795 12.1211 15.7 12.2141C14.6102 13.2825 13.1542 13.8954 11.6283 13.9281C10.1025 13.9608 8.62161 13.4108 7.487 12.3901L7.136 12.0621C6.42953 11.4431 5.52777 11.0925 4.58872 11.0717C3.64967 11.0508 2.73323 11.3611 2 11.9481V18.5001C1.99972 18.755 1.90212 19.0002 1.72715 19.1855C1.55218 19.3708 1.31305 19.4824 1.05861 19.4973C0.804163 19.5123 0.553621 19.4295 0.358168 19.2659C0.162715 19.1023 0.0371036 18.8702 0.00699997 18.6171L0 18.5001V2.50014Z" fill="#C7242D"/>
</svg>
