<svg width="20" height="21" viewBox="0 0 20 21" fill="none" xmlns="http://www.w3.org/2000/svg">
<path fill-rule="evenodd" clip-rule="evenodd" d="M8.138 0.314985C8.58591 0.180619 9.05903 0.152823 9.5196 0.233816C9.98016 0.31481 10.4154 0.502349 10.7906 0.781465C11.1658 1.06058 11.4706 1.42354 11.6805 1.84138C11.8905 2.25921 11.9999 2.72035 12 3.18798V17.812C11.9999 18.2796 11.8905 18.7408 11.6805 19.1586C11.4706 19.5764 11.1658 19.9394 10.7906 20.2185C10.4154 20.4976 9.98016 20.6852 9.5196 20.7662C9.05903 20.8471 8.58591 20.8194 8.138 20.685L2.138 18.885C1.5201 18.6996 0.97841 18.32 0.593282 17.8025C0.208154 17.285 0.000105789 16.6571 0 16.012V4.98798C0.000105789 4.34288 0.208154 3.715 0.593282 3.19747C0.97841 2.67994 1.5201 2.30034 2.138 2.11498L8.138 0.314985ZM13 2.49998C13 2.23477 13.1054 1.98041 13.2929 1.79288C13.4804 1.60534 13.7348 1.49998 14 1.49998H17C17.7956 1.49998 18.5587 1.81606 19.1213 2.37866C19.6839 2.94127 20 3.70434 20 4.49998V5.49998C20 5.7652 19.8946 6.01956 19.7071 6.20709C19.5196 6.39463 19.2652 6.49998 19 6.49998C18.7348 6.49998 18.4804 6.39463 18.2929 6.20709C18.1054 6.01956 18 5.7652 18 5.49998V4.49998C18 4.23477 17.8946 3.98041 17.7071 3.79288C17.5196 3.60534 17.2652 3.49998 17 3.49998H14C13.7348 3.49998 13.4804 3.39463 13.2929 3.20709C13.1054 3.01955 13 2.7652 13 2.49998ZM19 14.5C19.2652 14.5 19.5196 14.6053 19.7071 14.7929C19.8946 14.9804 20 15.2348 20 15.5V16.5C20 17.2956 19.6839 18.0587 19.1213 18.6213C18.5587 19.1839 17.7956 19.5 17 19.5H14C13.7348 19.5 13.4804 19.3946 13.2929 19.2071C13.1054 19.0196 13 18.7652 13 18.5C13 18.2348 13.1054 17.9804 13.2929 17.7929C13.4804 17.6053 13.7348 17.5 14 17.5H17C17.2652 17.5 17.5196 17.3946 17.7071 17.2071C17.8946 17.0196 18 16.7652 18 16.5V15.5C18 15.2348 18.1054 14.9804 18.2929 14.7929C18.4804 14.6053 18.7348 14.5 19 14.5ZM7 9.49998C6.73478 9.49998 6.48043 9.60534 6.29289 9.79288C6.10536 9.98041 6 10.2348 6 10.5C6 10.7652 6.10536 11.0196 6.29289 11.2071C6.48043 11.3946 6.73478 11.5 7 11.5H7.001C7.26622 11.5 7.52057 11.3946 7.70811 11.2071C7.89564 11.0196 8.001 10.7652 8.001 10.5C8.001 10.2348 7.89564 9.98041 7.70811 9.79288C7.52057 9.60534 7.26622 9.49998 7.001 9.49998H7Z" fill="#C7242D"/>
<path d="M14 10.5H19M19 10.5L17 8.5M19 10.5L17 12.5" stroke="#C7242D" stroke-width="2" stroke-linecap="round" stroke-linejoin="round"/>
</svg>
