<svg width="16" height="19" viewBox="0 0 16 19" fill="none" xmlns="http://www.w3.org/2000/svg">
<path d="M4.23525e-08 1.05582V17.9442C-5.3432e-05 18.132 0.0505316 18.3164 0.146536 18.4784C0.24254 18.6404 0.380486 18.7742 0.546143 18.8658C0.711799 18.9574 0.899165 19.0037 1.08891 18.9998C1.27866 18.9958 1.46391 18.9419 1.62555 18.8435L15.4918 10.3993C15.6471 10.3049 15.7754 10.1726 15.8643 10.0152C15.9533 9.85775 16 9.68038 16 9.5C16 9.31962 15.9533 9.14225 15.8643 8.98481C15.7754 8.82738 15.6471 8.69513 15.4918 8.60069L1.62555 0.156515C1.46391 0.0581028 1.27866 0.00415256 1.08891 0.000230269C0.899165 -0.00369202 0.711799 0.0425557 0.546143 0.134202C0.380486 0.225848 0.24254 0.359574 0.146536 0.521581C0.0505316 0.683589 -5.3432e-05 0.868011 4.23525e-08 1.05582Z" fill="#292929"/>
</svg>
