<svg width="22" height="22" viewBox="0 0 22 22" fill="none" xmlns="http://www.w3.org/2000/svg">
<path d="M9.70394 1.75015L3.66677 7.78732C3.41023 8.0437 3.2355 8.37042 3.16468 8.72613C3.09386 9.08184 3.13015 9.45057 3.26894 9.78565L3.33127 9.91857C3.48501 10.219 3.7187 10.4712 4.0066 10.6474C4.2945 10.8235 4.62543 10.9167 4.96294 10.9168H7.33344V17.3335C7.33344 17.8197 7.5266 18.286 7.87041 18.6298C8.21423 18.9737 8.68054 19.1668 9.16677 19.1668H12.8334L12.9709 19.1622C13.4322 19.1275 13.8632 18.9198 14.1777 18.5807C14.4922 18.2415 14.6669 17.796 14.6668 17.3335L14.6659 10.9168H17.0373C17.3998 10.9167 17.7542 10.8092 18.0556 10.6077C18.357 10.4063 18.592 10.12 18.7307 9.78502C18.8694 9.45007 18.9057 9.08151 18.835 8.72593C18.7643 8.37035 18.5898 8.04372 18.3334 7.78732L12.2963 1.75015C11.9525 1.40646 11.4862 1.21338 11.0001 1.21338C10.514 1.21338 10.0477 1.40646 9.70394 1.75015Z" fill="white"/>
</svg>
