<svg xmlns="http://www.w3.org/2000/svg" width="48" height="48" viewBox="0 0 48 48" fill="none">
  <path d="M25.6428 14V18.2857C25.6428 18.5699 25.7557 18.8424 25.9566 19.0433C26.1576 19.2443 26.4301 19.3571 26.7143 19.3571H31" stroke="#E9E9E9" stroke-width="1.8" stroke-linecap="round" stroke-linejoin="round"/>
  <path d="M28.8571 33.2857H18.1429C17.5745 33.2857 17.0295 33.06 16.6276 32.6581C16.2258 32.2562 16 31.7112 16 31.1429V16.1429C16 15.5745 16.2258 15.0295 16.6276 14.6276C17.0295 14.2258 17.5745 14 18.1429 14H25.6429L31 19.3571V31.1429C31 31.7112 30.7742 32.2562 30.3724 32.6581C29.9705 33.06 29.4255 33.2857 28.8571 33.2857Z" stroke="#E9E9E9" stroke-width="1.8" stroke-linecap="round" stroke-linejoin="round"/>
  <path d="M23.5 27.9284C23.5 28.2126 23.3872 28.4851 23.1862 28.686C22.9853 28.887 22.7128 28.9999 22.4286 28.9999C22.1444 28.9999 21.8719 28.887 21.671 28.686C21.4701 28.4851 21.3572 28.2126 21.3572 27.9284C21.3572 27.6443 21.4701 27.3717 21.671 27.1708C21.8719 26.9699 22.1444 26.857 22.4286 26.857C22.7128 26.857 22.9853 26.9699 23.1862 27.1708C23.3872 27.3717 23.5 27.6443 23.5 27.9284ZM23.5 27.9284V22.5713L25.6429 23.6427" stroke="#E9E9E9" stroke-width="1.8" stroke-linecap="round" stroke-linejoin="round"/>
</svg>