<svg xmlns="http://www.w3.org/2000/svg" width="48" height="48" viewBox="0 0 48 48" fill="none">
  <path d="M15 29C15 29.7956 15.3161 30.5587 15.8787 31.1213C16.4413 31.6839 17.2044 32 18 32C18.7956 32 19.5587 31.6839 20.1213 31.1213C20.6839 30.5587 21 29.7956 21 29C21 28.2044 20.6839 27.4413 20.1213 26.8787C19.5587 26.3161 18.7956 26 18 26C17.2044 26 16.4413 26.3161 15.8787 26.8787C15.3161 27.4413 15 28.2044 15 29ZM25 29C25 29.7956 25.3161 30.5587 25.8787 31.1213C26.4413 31.6839 27.2044 32 28 32C28.7956 32 29.5587 31.6839 30.1213 31.1213C30.6839 30.5587 31 29.7956 31 29C31 28.2044 30.6839 27.4413 30.1213 26.8787C29.5587 26.3161 28.7956 26 28 26C27.2044 26 26.4413 26.3161 25.8787 26.8787C25.3161 27.4413 25 28.2044 25 29Z" stroke="#E9E9E9" stroke-width="1.8" stroke-linecap="round" stroke-linejoin="round"/>
  <path d="M21 29V16H31V29M21 20H31" stroke="#E9E9E9" stroke-width="1.8" stroke-linecap="round" stroke-linejoin="round"/>
</svg>