<svg xmlns="http://www.w3.org/2000/svg" width="52" height="53" viewBox="0 0 52 53" fill="none">
  <path d="M26 0.5L29.7028 7.8847L35.9498 2.47913L36.5447 10.7187L44.3848 8.11522L41.7813 15.9553L50.0209 16.5502L44.6153 22.7972L52 26.5L44.6153 30.2028L50.0209 36.4498L41.7813 37.0447L44.3848 44.8848L36.5447 42.2813L35.9498 50.5209L29.7028 45.1153L26 52.5L22.2972 45.1153L16.0502 50.5209L15.4553 42.2813L7.61522 44.8848L10.2187 37.0447L1.97913 36.4498L7.3847 30.2028L0 26.5L7.3847 22.7972L1.97913 16.5502L10.2187 15.9553L7.61522 8.11522L15.4553 10.7187L16.0502 2.47913L22.2972 7.8847L26 0.5Z" fill="black"/>
</svg>