<svg xmlns="http://www.w3.org/2000/svg" width="23" height="22" viewBox="0 0 23 22" fill="none">
  <path d="M11.5 0L12.9807 3.55584L15.7095 0.837325L15.7168 4.68915L19.2782 3.22183L17.8109 6.78322L21.6627 6.79048L18.9442 9.51926L22.5 11L18.9442 12.4807L21.6627 15.2095L17.8109 15.2168L19.2782 18.7782L15.7168 17.3109L15.7095 21.1627L12.9807 18.4442L11.5 22L10.0193 18.4442L7.29048 21.1627L7.28322 17.3109L3.72183 18.7782L5.18915 15.2168L1.33733 15.2095L4.05584 12.4807L0.5 11L4.05584 9.51926L1.33733 6.79048L5.18915 6.78322L3.72183 3.22183L7.28322 4.68915L7.29048 0.837325L10.0193 3.55584L11.5 0Z" fill="#CACACA"/>
</svg>