<svg xmlns="http://www.w3.org/2000/svg" width="48" height="48" viewBox="0 0 48 48" fill="none">
  <path d="M32 20.6438V24.4537C30.2869 24.2837 28.6534 23.6463 27.2778 22.6111V26.8611C27.2775 28.0144 26.9524 29.1443 26.3397 30.1213C25.7269 31.0984 24.8513 31.8831 23.8132 32.3855C22.7751 32.8879 21.6165 33.0877 20.4701 32.9621C19.3237 32.8364 18.2358 32.3904 17.3312 31.6751C16.4265 30.9597 15.7417 30.004 15.3551 28.9175C14.9686 27.8309 14.8959 26.6574 15.1454 25.5314C15.395 24.4055 15.9567 23.3726 16.7661 22.5511C17.5756 21.7296 18.6001 21.1527 19.7222 20.8866V24.9722C19.4002 25.2137 19.1453 25.5335 18.9817 25.9012C18.8181 26.2689 18.7512 26.6723 18.7873 27.0732C18.8235 27.474 18.9615 27.8589 19.1882 28.1914C19.415 28.5239 19.723 28.793 20.083 28.973C20.4429 29.1529 20.843 29.2379 21.245 29.2198C21.6471 29.2017 22.0378 29.0812 22.3802 28.8696C22.7226 28.658 23.0051 28.3624 23.2011 28.0109C23.3971 27.6594 23.5 27.2636 23.5 26.8611V16H27.3562C27.5528 17.1602 28.1055 18.2304 28.9375 19.0625C29.7696 19.8945 30.8398 20.4472 32 20.6438Z" stroke="#E9E9E9" stroke-width="1.7" stroke-linecap="round" stroke-linejoin="round"/>
</svg>