<svg xmlns="http://www.w3.org/2000/svg" width="48" height="48" viewBox="0 0 48 48" fill="none">
  <path d="M16 32V30.1111C16 29.1092 16.398 28.1483 17.1065 27.4398C17.815 26.7313 18.7758 26.3333 19.7778 26.3333H23.5556C24.5575 26.3333 25.5184 26.7313 26.2268 27.4398C26.9353 28.1483 27.3333 29.1092 27.3333 30.1111V32M28.2778 15.1228C29.0904 15.3308 29.8106 15.8034 30.325 16.4661C30.8393 17.1287 31.1185 17.9437 31.1185 18.7825C31.1185 19.6213 30.8393 20.4363 30.325 21.0989C29.8106 21.7616 29.0904 22.2342 28.2778 22.4422M33 32V30.1111C32.9952 29.2773 32.7147 28.4685 32.2022 27.8108C31.6897 27.1531 30.974 26.6834 30.1667 26.475M17.8889 18.7778C17.8889 19.7797 18.2869 20.7406 18.9954 21.4491C19.7038 22.1575 20.6647 22.5556 21.6667 22.5556C22.6686 22.5556 23.6295 22.1575 24.338 21.4491C25.0464 20.7406 25.4444 19.7797 25.4444 18.7778C25.4444 17.7758 25.0464 16.815 24.338 16.1065C23.6295 15.398 22.6686 15 21.6667 15C20.6647 15 19.7038 15.398 18.9954 16.1065C18.2869 16.815 17.8889 17.7758 17.8889 18.7778Z" stroke="#E9E9E9" stroke-width="1.88889" stroke-linecap="round" stroke-linejoin="round"/>
</svg>