<svg width="48" height="48" viewBox="0 0 48 48" fill="none" xmlns="http://www.w3.org/2000/svg">
<path d="M11 36.9994V31.1169C11 29.9468 11.4648 28.8247 12.2922 27.9973C13.1196 27.1699 14.2418 26.7051 15.4118 26.7051H22.7649" stroke="#CACACA" stroke-width="2.50005" stroke-linecap="round" stroke-linejoin="round"/>
<path d="M18.353 31.1186L22.7649 26.7068L18.353 22.2949" stroke="#CACACA" stroke-width="2.50005" stroke-linecap="round" stroke-linejoin="round"/>
<path d="M11 22.2943V14.9412C11 14.1612 11.3099 13.4131 11.8615 12.8615C12.4131 12.3099 13.1612 12 13.9412 12H19.8237L24.2355 16.4118H34.5299C35.3099 16.4118 36.058 16.7217 36.6096 17.2733C37.1612 17.8249 37.4711 18.573 37.4711 19.3531V31.118C37.4711 31.8981 37.1612 32.6462 36.6096 33.1978C36.058 33.7494 35.3099 34.0592 34.5299 34.0592H22.7649" stroke="#CACACA" stroke-width="2.50005" stroke-linecap="round" stroke-linejoin="round"/>
</svg>
