<svg width="31" height="31" viewBox="0 0 31 31" fill="none" xmlns="http://www.w3.org/2000/svg">
<path d="M21.9583 4.31468C23.9064 5.43953 25.5271 7.05369 26.6597 8.99736C27.7923 10.941 28.3977 13.1468 28.4158 15.3963C28.434 17.6459 27.8644 19.8611 26.7633 21.8228C25.6622 23.7845 24.0679 25.4247 22.1381 26.5808C20.2084 27.737 18.0101 28.3692 15.761 28.4147C13.5118 28.4602 11.2898 27.9175 9.31484 26.8404C7.33989 25.7632 5.6805 24.1889 4.50095 22.2734C3.32139 20.3578 2.66257 18.1674 2.58971 15.919L2.58325 15.5005L2.58971 15.082C2.66205 12.8513 3.31117 10.6774 4.47379 8.77221C5.6364 6.86704 7.27285 5.29564 9.22357 4.21119C11.1743 3.12675 13.3727 2.56627 15.6046 2.58441C17.8364 2.60255 20.0254 3.19868 21.9583 4.31468ZM20.2881 12.004C20.0657 11.7816 19.7698 11.648 19.4559 11.6282C19.142 11.6085 18.8316 11.704 18.5831 11.8968L18.4617 12.004L14.2083 16.2561L12.5381 14.5873L12.4167 14.4801C12.1682 14.2874 11.8579 14.1921 11.5441 14.2119C11.2302 14.2317 10.9344 14.3653 10.712 14.5876C10.4897 14.81 10.3561 15.1058 10.3363 15.4197C10.3165 15.7335 10.4119 16.0438 10.6045 16.2923L10.7117 16.4137L13.295 18.9971L13.4165 19.1043C13.643 19.28 13.9215 19.3754 14.2083 19.3754C14.495 19.3754 14.7735 19.28 15 19.1043L15.1215 18.9971L20.2881 13.8304L20.3953 13.709C20.5881 13.4604 20.6836 13.1501 20.6639 12.8362C20.6441 12.5223 20.5105 12.2264 20.2881 12.004Z" fill="#B42127"/>
</svg>
