<svg width="31" height="31" viewBox="0 0 31 31" fill="none" xmlns="http://www.w3.org/2000/svg">
<path d="M3.875 15.5C3.875 17.0266 4.17569 18.5383 4.7599 19.9487C5.34411 21.3591 6.2004 22.6406 7.27988 23.7201C8.35936 24.7996 9.64089 25.6559 11.0513 26.2401C12.4617 26.8243 13.9734 27.125 15.5 27.125C17.0266 27.125 18.5383 26.8243 19.9487 26.2401C21.3591 25.6559 22.6406 24.7996 23.7201 23.7201C24.7996 22.6406 25.6559 21.3591 26.2401 19.9487C26.8243 18.5383 27.125 17.0266 27.125 15.5C27.125 13.9734 26.8243 12.4617 26.2401 11.0513C25.6559 9.64089 24.7996 8.35936 23.7201 7.27988C22.6406 6.2004 21.3591 5.34411 19.9487 4.7599C18.5383 4.17569 17.0266 3.875 15.5 3.875C13.9734 3.875 12.4617 4.17569 11.0513 4.7599C9.64089 5.34411 8.35936 6.2004 7.27988 7.27988C6.2004 8.35936 5.34411 9.64089 4.7599 11.0513C4.17569 12.4617 3.875 13.9734 3.875 15.5Z" stroke="#CACACA" stroke-width="2.58333" stroke-linecap="round" stroke-linejoin="round"/>
</svg>
