<svg width="40" height="40" viewBox="0 0 40 40" fill="none" xmlns="http://www.w3.org/2000/svg">
<path d="M11.8333 11.25H16.5L20 14.75H28.1667C28.7855 14.75 29.379 14.9958 29.8166 15.4334C30.2542 15.871 30.5 16.4645 30.5 17.0833V26.4167C30.5 27.0355 30.2542 27.629 29.8166 28.0666C29.379 28.5042 28.7855 28.75 28.1667 28.75H11.8333C11.2145 28.75 10.621 28.5042 10.1834 28.0666C9.74583 27.629 9.5 27.0355 9.5 26.4167V13.5833C9.5 12.9645 9.74583 12.371 10.1834 11.9334C10.621 11.4958 11.2145 11.25 11.8333 11.25Z" stroke="#959595" stroke-width="2.33333" stroke-linecap="round" stroke-linejoin="round"/>
<path d="M19.0645 17.9199H23.3223V19.043H20.1582L19.9482 21.0645H19.9971C20.1924 20.8366 20.4219 20.6608 20.6855 20.5371C20.9525 20.4134 21.2389 20.3516 21.5449 20.3516C21.9388 20.3516 22.3083 20.4508 22.6533 20.6494C22.9984 20.848 23.2734 21.1263 23.4785 21.4844C23.6868 21.8424 23.791 22.2493 23.791 22.7051C23.791 23.1738 23.6787 23.5938 23.4541 23.9648C23.2295 24.3327 22.917 24.6208 22.5166 24.8291C22.1162 25.0342 21.6621 25.1367 21.1543 25.1367C20.7507 25.1367 20.3714 25.0684 20.0166 24.9316C19.665 24.7949 19.3558 24.5996 19.0889 24.3457C18.8219 24.0885 18.612 23.7826 18.459 23.4277L19.5918 22.9883C19.7415 23.3301 19.9482 23.5921 20.2119 23.7744C20.4788 23.9535 20.7897 24.043 21.1445 24.043C21.4245 24.043 21.6719 23.9876 21.8867 23.877C22.1016 23.7663 22.2676 23.6117 22.3848 23.4131C22.502 23.2113 22.5605 22.9785 22.5605 22.7148C22.5605 22.4512 22.502 22.2201 22.3848 22.0215C22.2676 21.8197 22.1016 21.6634 21.8867 21.5527C21.6751 21.4421 21.431 21.3867 21.1543 21.3867C20.8613 21.3867 20.6042 21.4486 20.3828 21.5723C20.1615 21.6927 19.9954 21.862 19.8848 22.0801H18.6641L19.0645 17.9199Z" fill="#959595"/>
</svg>
