<svg width="40" height="40" viewBox="0 0 40 40" fill="none" xmlns="http://www.w3.org/2000/svg">
<path d="M11.8333 11.25H16.5L20 14.75H28.1667C28.7855 14.75 29.379 14.9958 29.8166 15.4334C30.2542 15.871 30.5 16.4645 30.5 17.0833V26.4167C30.5 27.0355 30.2542 27.629 29.8166 28.0666C29.379 28.5042 28.7855 28.75 28.1667 28.75H11.8333C11.2145 28.75 10.621 28.5042 10.1834 28.0666C9.74583 27.629 9.5 27.0355 9.5 26.4167V13.5833C9.5 12.9645 9.74583 12.371 10.1834 11.9334C10.621 11.4958 11.2145 11.25 11.8333 11.25Z" stroke="#959595" stroke-width="2.33333" stroke-linecap="round" stroke-linejoin="round"/>
<path d="M18.4688 22.3926L21.0469 17.9297H22.4043L19.875 22.3438V22.3926H21.8965V20.4688H23.0977V22.3926H24.1621V23.5254H23.0977V25H21.8965V23.5254H18.4688V22.3926Z" fill="#959595"/>
</svg>
