<svg width="40" height="40" viewBox="0 0 40 40" fill="none" xmlns="http://www.w3.org/2000/svg">
<path d="M11.8333 11.25H16.5L20 14.75H28.1667C28.7855 14.75 29.379 14.9958 29.8166 15.4334C30.2542 15.871 30.5 16.4645 30.5 17.0833V26.4167C30.5 27.0355 30.2542 27.629 29.8166 28.0666C29.379 28.5042 28.7855 28.75 28.1667 28.75H11.8333C11.2145 28.75 10.621 28.5042 10.1834 28.0666C9.74583 27.629 9.5 27.0355 9.5 26.4167V13.5833C9.5 12.9645 9.74583 12.371 10.1834 11.9334C10.621 11.4958 11.2145 11.25 11.8333 11.25Z" stroke="#959595" stroke-width="2.33333" stroke-linecap="round" stroke-linejoin="round"/>
<path d="M21.1348 25.1367C20.4837 25.1367 19.9287 24.9854 19.4697 24.6826C19.0107 24.3766 18.6673 23.9388 18.4395 23.3691L19.5918 22.9688C19.7415 23.3268 19.9434 23.5954 20.1973 23.7744C20.4544 23.9535 20.7604 24.043 21.1152 24.043C21.3887 24.043 21.6328 23.9941 21.8477 23.8965C22.0658 23.7988 22.235 23.6637 22.3555 23.4912C22.4792 23.3187 22.541 23.125 22.541 22.9102C22.541 22.679 22.4678 22.4788 22.3213 22.3096C22.1781 22.1403 21.973 22.0117 21.7061 21.9238C21.4424 21.8327 21.1283 21.7871 20.7637 21.7871H20.5293V20.8105H20.7637C21.2422 20.8073 21.6165 20.7227 21.8867 20.5566C22.1569 20.3874 22.2936 20.153 22.2969 19.8535C22.2969 19.668 22.2448 19.502 22.1406 19.3555C22.0397 19.209 21.8981 19.0951 21.7158 19.0137C21.5368 18.929 21.3333 18.8867 21.1055 18.8867C20.7962 18.8867 20.5277 18.9648 20.2998 19.1211C20.0719 19.2773 19.8978 19.5052 19.7773 19.8047L18.625 19.4141C18.8366 18.89 19.1589 18.4896 19.5918 18.2129C20.0247 17.9329 20.5358 17.793 21.125 17.793C21.584 17.793 21.9974 17.876 22.3652 18.042C22.7331 18.208 23.0195 18.4375 23.2246 18.7305C23.4329 19.0234 23.5371 19.3522 23.5371 19.7168C23.5404 20.0944 23.4264 20.4167 23.1953 20.6836C22.9674 20.9473 22.6387 21.1458 22.209 21.2793V21.3037C22.7168 21.4502 23.1074 21.6748 23.3809 21.9775C23.6576 22.2803 23.7943 22.6432 23.791 23.0664C23.791 23.4603 23.6771 23.8151 23.4492 24.1309C23.2214 24.4466 22.904 24.694 22.4971 24.873C22.0934 25.0488 21.6393 25.1367 21.1348 25.1367Z" fill="#959595"/>
</svg>
