<svg width="40" height="40" viewBox="0 0 40 40" fill="none" xmlns="http://www.w3.org/2000/svg">
<path d="M11.8333 11.25H16.5L20 14.75H28.1667C28.7855 14.75 29.379 14.9958 29.8166 15.4334C30.2542 15.871 30.5 16.4645 30.5 17.0833V26.4167C30.5 27.0355 30.2542 27.629 29.8166 28.0666C29.379 28.5042 28.7855 28.75 28.1667 28.75H11.8333C11.2145 28.75 10.621 28.5042 10.1834 28.0666C9.74583 27.629 9.5 27.0355 9.5 26.4167V13.5833C9.5 12.9645 9.74583 12.371 10.1834 11.9334C10.621 11.4958 11.2145 11.25 11.8333 11.25Z" stroke="#959595" stroke-width="2.33333" stroke-linecap="round" stroke-linejoin="round"/>
<path d="M18.6152 23.8965C19.4323 23.3757 20.0996 22.8955 20.6172 22.4561C21.138 22.0133 21.5221 21.5983 21.7695 21.2109C22.0202 20.8236 22.1471 20.4492 22.1504 20.0879C22.1504 19.8503 22.0999 19.6436 21.999 19.4678C21.9014 19.292 21.763 19.1569 21.584 19.0625C21.4049 18.9648 21.1966 18.916 20.959 18.916C20.666 18.9193 20.4186 19.0023 20.2168 19.165C20.015 19.3278 19.862 19.5996 19.7578 19.9805L18.5762 19.6777C18.7487 19.0462 19.0417 18.5742 19.4551 18.2617C19.8685 17.9492 20.3698 17.793 20.959 17.793C21.4342 17.793 21.8542 17.8906 22.2188 18.0859C22.5866 18.278 22.8714 18.5465 23.0732 18.8916C23.2783 19.2367 23.3809 19.6289 23.3809 20.0684C23.3776 20.6901 23.1383 21.3118 22.6631 21.9336C22.1911 22.5553 21.4863 23.1917 20.5488 23.8428V23.877H23.4785V25H18.6152V23.8965Z" fill="#959595"/>
</svg>
