<svg width="40" height="40" viewBox="0 0 40 40" fill="none" xmlns="http://www.w3.org/2000/svg">
<path d="M11.8333 11.25H16.5L20 14.75H28.1667C28.7855 14.75 29.379 14.9958 29.8166 15.4334C30.2542 15.871 30.5 16.4645 30.5 17.0833V26.4167C30.5 27.0355 30.2542 27.629 29.8166 28.0666C29.379 28.5042 28.7855 28.75 28.1667 28.75H11.8333C11.2145 28.75 10.621 28.5042 10.1834 28.0666C9.74583 27.629 9.5 27.0355 9.5 26.4167V13.5833C9.5 12.9645 9.74583 12.371 10.1834 11.9334C10.621 11.4958 11.2145 11.25 11.8333 11.25Z" stroke="white" stroke-width="2.33333" stroke-linecap="round" stroke-linejoin="round"/>
<path d="M18.5566 18.209C19.1133 17.8672 19.6748 17.4521 20.2559 16.9297H21.4863V24H20.2559V18.375H20.2266C19.6699 18.8193 19.1035 19.2148 18.5566 19.498V18.209Z" fill="white"/>
</svg>
