<svg width="31" height="31" viewBox="0 0 31 31" fill="none" xmlns="http://www.w3.org/2000/svg">
<path d="M21.9585 4.31468C23.9067 5.43953 25.5273 7.05369 26.6599 8.99736C27.7926 10.941 28.3979 13.1468 28.4161 15.3963C28.4343 17.6459 27.8646 19.8611 26.7635 21.8228C25.6624 23.7845 24.0681 25.4247 22.1383 26.5808C20.2086 27.737 18.0103 28.3692 15.7612 28.4147C13.5121 28.4602 11.29 27.9175 9.31509 26.8404C7.34014 25.7632 5.68075 24.1889 4.50119 22.2734C3.32163 20.3578 2.66282 18.1674 2.58995 15.919L2.5835 15.5005L2.58995 15.082C2.66229 12.8513 3.31141 10.6774 4.47403 8.77221C5.63665 6.86704 7.27309 5.29564 9.22381 4.21119C11.1745 3.12675 13.373 2.56627 15.6048 2.58441C17.8366 2.60255 20.0257 3.19868 21.9585 4.31468ZM20.2884 12.004C20.066 11.7816 19.77 11.648 19.4561 11.6282C19.1422 11.6085 18.8319 11.704 18.5834 11.8968L18.462 12.004L14.2085 16.2561L12.5384 14.5873L12.417 14.4801C12.1684 14.2874 11.8581 14.1921 11.5443 14.2119C11.2305 14.2317 10.9346 14.3653 10.7123 14.5876C10.4899 14.81 10.3563 15.1058 10.3365 15.4197C10.3167 15.7335 10.4121 16.0438 10.6047 16.2923L10.712 16.4137L13.2953 18.9971L13.4167 19.1043C13.6432 19.28 13.9218 19.3754 14.2085 19.3754C14.4952 19.3754 14.7738 19.28 15.0003 19.1043L15.1217 18.9971L20.2884 13.8304L20.3956 13.709C20.5884 13.4604 20.6838 13.1501 20.6641 12.8362C20.6444 12.5223 20.5108 12.2264 20.2884 12.004Z" fill="#CACACA"/>
</svg>
