<svg width="40" height="40" viewBox="0 0 40 40" fill="none" xmlns="http://www.w3.org/2000/svg">
<path d="M11 21.6195C11 20.9502 11.2659 20.3082 11.7392 19.8349C12.2125 19.3616 12.8545 19.0957 13.5238 19.0957H26.1429C26.8122 19.0957 27.4542 19.3616 27.9275 19.8349C28.4008 20.3082 28.6667 20.9502 28.6667 21.6195V29.1909C28.6667 29.8603 28.4008 30.5022 27.9275 30.9755C27.4542 31.4489 26.8122 31.7148 26.1429 31.7148H13.5238C12.8545 31.7148 12.2125 31.4489 11.7392 30.9755C11.2659 30.5022 11 29.8603 11 29.1909V21.6195Z" stroke="#E9E9E9" stroke-width="2.1" stroke-linecap="round" stroke-linejoin="round"/>
<path d="M14.7857 19.0952V14.0476C14.7857 12.7089 15.3175 11.425 16.2641 10.4784C17.2107 9.5318 18.4946 9 19.8333 9C21.172 9 22.4559 9.5318 23.4025 10.4784C24.3491 11.425 24.8809 12.7089 24.8809 14.0476V19.0952M18.5714 25.4048C18.5714 25.7394 18.7044 26.0604 18.941 26.2971C19.1777 26.5337 19.4986 26.6667 19.8333 26.6667C20.168 26.6667 20.489 26.5337 20.7256 26.2971C20.9623 26.0604 21.0952 25.7394 21.0952 25.4048C21.0952 25.0701 20.9623 24.7491 20.7256 24.5125C20.489 24.2758 20.168 24.1429 19.8333 24.1429C19.4986 24.1429 19.1777 24.2758 18.941 24.5125C18.7044 24.7491 18.5714 25.0701 18.5714 25.4048Z" stroke="#E9E9E9" stroke-width="2.1" stroke-linecap="round" stroke-linejoin="round"/>
</svg>
