<svg width="31" height="31" viewBox="0 0 31 31" fill="none" xmlns="http://www.w3.org/2000/svg">
<path d="M6.36651 6.36648C7.56026 5.14209 8.98524 4.16692 10.5588 3.49754C12.1324 2.82816 13.8232 2.47789 15.5331 2.46706C17.2431 2.45622 18.9382 2.78503 20.5201 3.43442C22.1021 4.0838 23.5393 5.04084 24.7485 6.25C25.9576 7.45916 26.9146 8.89639 27.564 10.4783C28.2134 12.0602 28.5422 13.7553 28.5314 15.4653C28.5206 17.1753 28.1703 18.8661 27.5009 20.4397C26.8315 22.0132 25.8564 23.4382 24.632 24.6319C22.1959 26.9848 18.9331 28.2867 15.5464 28.2573C12.1597 28.2279 8.92 26.8694 6.52515 24.4746C4.13029 22.0797 2.77186 18.8401 2.74243 15.4534C2.713 12.0667 4.01493 8.80388 6.3678 6.36777L6.36651 6.36648ZM16.7916 11.6249C16.7916 11.2823 16.6555 10.9537 16.4132 10.7115C16.171 10.4693 15.8425 10.3332 15.4999 10.3332C15.1573 10.3332 14.8288 10.4693 14.5865 10.7115C14.3443 10.9537 14.2082 11.2823 14.2082 11.6249V14.2082H11.6249C11.2823 14.2082 10.9538 14.3443 10.7115 14.5865C10.4693 14.8287 10.3332 15.1573 10.3332 15.4999C10.3332 15.8424 10.4693 16.171 10.7115 16.4132C10.9538 16.6554 11.2823 16.7915 11.6249 16.7915H14.2082V19.3749C14.2082 19.7174 14.3443 20.046 14.5865 20.2882C14.8288 20.5304 15.1573 20.6665 15.4999 20.6665C15.8425 20.6665 16.171 20.5304 16.4132 20.2882C16.6555 20.046 16.7916 19.7174 16.7916 19.3749V16.7915H19.3749C19.7175 16.7915 20.046 16.6554 20.2882 16.4132C20.5305 16.171 20.6666 15.8424 20.6666 15.4999C20.6666 15.1573 20.5305 14.8287 20.2882 14.5865C20.046 14.3443 19.7175 14.2082 19.3749 14.2082H16.7916V11.6249Z" fill="#E9E9E9"/>
</svg>
