<svg width="40" height="40" viewBox="0 0 40 40" fill="none" xmlns="http://www.w3.org/2000/svg">
<path d="M16.3889 19.5833H24.4445M20.4167 15.5556V23.6111M8.33334 19.5833C8.33334 21.1701 8.64589 22.7414 9.25313 24.2074C9.86038 25.6734 10.7504 27.0055 11.8725 28.1275C12.9945 29.2496 14.3266 30.1396 15.7926 30.7469C17.2586 31.3541 18.8299 31.6667 20.4167 31.6667C22.0035 31.6667 23.5748 31.3541 25.0408 30.7469C26.5068 30.1396 27.8388 29.2496 28.9609 28.1275C30.0829 27.0055 30.973 25.6734 31.5802 24.2074C32.1875 22.7414 32.5 21.1701 32.5 19.5833C32.5 16.3786 31.2269 13.3052 28.9609 11.0391C26.6948 8.77306 23.6214 7.5 20.4167 7.5C17.212 7.5 14.1385 8.77306 11.8725 11.0391C9.60641 13.3052 8.33334 16.3786 8.33334 19.5833Z" stroke="#E9E9E9" stroke-width="2.33333" stroke-linecap="round" stroke-linejoin="round"/>
</svg>
