<svg width="25" height="25" viewBox="0 0 25 25" fill="none" xmlns="http://www.w3.org/2000/svg">
<rect width="25" height="25" rx="12.5" fill="#B42127"/>
<path d="M18.875 18.875L14.625 14.625M6.125 11.0833C6.125 11.7345 6.25325 12.3792 6.50243 12.9808C6.75161 13.5824 7.11684 14.129 7.57726 14.5894C8.03769 15.0498 8.58429 15.4151 9.18586 15.6642C9.78743 15.9134 10.4322 16.0417 11.0833 16.0417C11.7345 16.0417 12.3792 15.9134 12.9808 15.6642C13.5824 15.4151 14.129 15.0498 14.5894 14.5894C15.0498 14.129 15.4151 13.5824 15.6642 12.9808C15.9134 12.3792 16.0417 11.7345 16.0417 11.0833C16.0417 10.4322 15.9134 9.78743 15.6642 9.18586C15.4151 8.58429 15.0498 8.03769 14.5894 7.57726C14.129 7.11684 13.5824 6.75161 12.9808 6.50243C12.3792 6.25325 11.7345 6.125 11.0833 6.125C10.4322 6.125 9.78743 6.25325 9.18586 6.50243C8.58429 6.75161 8.03769 7.11684 7.57726 7.57726C7.11684 8.03769 6.75161 8.58429 6.50243 9.18586C6.25325 9.78743 6.125 10.4322 6.125 11.0833Z" stroke="#E9E9E9" stroke-width="1.41667" stroke-linecap="round" stroke-linejoin="round"/>
</svg>
