<svg width="48" height="48" viewBox="0 0 48 48" fill="none" xmlns="http://www.w3.org/2000/svg">
<path d="M12 16.2222H36.8889M21.3333 22.4444V31.7778M27.5556 22.4444V31.7778M13.5556 16.2222L15.1111 34.8889C15.1111 35.714 15.4389 36.5053 16.0223 37.0888C16.6058 37.6722 17.3971 38 18.2222 38H30.6667C31.4918 38 32.2831 37.6722 32.8666 37.0888C33.45 36.5053 33.7778 35.714 33.7778 34.8889L35.3333 16.2222M19.7778 16.2222V11.5556C19.7778 11.143 19.9417 10.7473 20.2334 10.4556C20.5251 10.1639 20.9208 10 21.3333 10H27.5556C27.9681 10 28.3638 10.1639 28.6555 10.4556C28.9472 10.7473 29.1111 11.143 29.1111 11.5556V16.2222" stroke="#CACACA" stroke-width="2.54545" stroke-linecap="round" stroke-linejoin="round"/>
</svg>
