<svg width="40" height="40" viewBox="0 0 40 40" fill="none" xmlns="http://www.w3.org/2000/svg">
<path d="M10 21.1109C10 20.5215 10.2341 19.9563 10.6509 19.5395C11.0676 19.1228 11.6329 18.8887 12.2222 18.8887H23.3333C23.9227 18.8887 24.4879 19.1228 24.9047 19.5395C25.3214 19.9563 25.5555 20.5215 25.5555 21.1109V27.7776C25.5555 28.3669 25.3214 28.9322 24.9047 29.3489C24.4879 29.7656 23.9227 29.9998 23.3333 29.9998H12.2222C11.6329 29.9998 11.0676 29.7656 10.6509 29.3489C10.2341 28.9322 10 28.3669 10 27.7776V21.1109Z" stroke="#E9E9E9" stroke-width="2.22222" stroke-linecap="round" stroke-linejoin="round"/>
<path d="M21.1112 18.8889V14.4444C21.1112 13.2657 21.5794 12.1352 22.4129 11.3017C23.2464 10.4683 24.3769 10 25.5556 10C26.7344 10 27.8648 10.4683 28.6983 11.3017C29.5318 12.1352 30.0001 13.2657 30.0001 14.4444V18.8889M16.6667 24.4444C16.6667 24.7391 16.7838 25.0217 16.9922 25.2301C17.2006 25.4385 17.4832 25.5555 17.7779 25.5555C18.0725 25.5555 18.3552 25.4385 18.5635 25.2301C18.7719 25.0217 18.889 24.7391 18.889 24.4444C18.889 24.1497 18.7719 23.8671 18.5635 23.6588C18.3552 23.4504 18.0725 23.3333 17.7779 23.3333C17.4832 23.3333 17.2006 23.4504 16.9922 23.6588C16.7838 23.8671 16.6667 24.1497 16.6667 24.4444Z" stroke="#E9E9E9" stroke-width="2.22222" stroke-linecap="round" stroke-linejoin="round"/>
</svg>
