<svg width="48" height="48" viewBox="0 0 48 48" fill="none" xmlns="http://www.w3.org/2000/svg">
<path d="M32.0003 10.1438C34.4136 11.5372 36.4211 13.5367 37.8241 15.9443C39.2271 18.3519 39.977 21.0843 39.9995 23.8708C40.022 26.6573 39.3163 29.4014 37.9524 31.8313C36.5885 34.2613 34.6135 36.293 32.2231 37.7251C29.8327 39.1573 27.1096 39.9403 24.3236 39.9967C21.5375 40.0531 18.785 39.3809 16.3386 38.0466C13.8922 36.7123 11.8366 34.7623 10.3755 32.3895C8.91435 30.0166 8.09826 27.3034 8.008 24.5182L8 23.9998L8.008 23.4814C8.09761 20.7182 8.90169 18.0254 10.3419 15.6654C11.782 13.3055 13.8091 11.359 16.2255 10.0156C18.6419 8.67233 21.3652 7.97806 24.1298 8.00053C26.8944 8.02299 29.606 8.76142 32.0003 10.1438ZM29.9315 19.6686C29.656 19.3931 29.2894 19.2277 28.9005 19.2032C28.5117 19.1788 28.1273 19.297 27.8194 19.5358L27.669 19.6686L22.4002 24.9358L20.3314 22.8686L20.181 22.7358C19.8731 22.4972 19.4887 22.3791 19.1 22.4036C18.7112 22.4281 18.3448 22.5936 18.0693 22.869C17.7939 23.1445 17.6284 23.5109 17.6039 23.8997C17.5794 24.2884 17.6975 24.6728 17.9361 24.9806L18.0689 25.131L21.269 28.331L21.4194 28.4638C21.7 28.6815 22.045 28.7997 22.4002 28.7997C22.7553 28.7997 23.1004 28.6815 23.381 28.4638L23.5314 28.331L29.9315 21.931L30.0643 21.7806C30.3031 21.4728 30.4213 21.0884 30.3969 20.6995C30.3724 20.3107 30.207 19.9441 29.9315 19.6686Z" fill="white"/>
</svg>
