<svg width="48" height="48" viewBox="0 0 48 48" fill="none" xmlns="http://www.w3.org/2000/svg">
<circle cx="25" cy="24" r="8" fill="#555555"/>
<path d="M24 7C33.3891 7 41 14.6109 41 24C41 28.5087 39.2089 32.8327 36.0208 36.0208C32.8327 39.2089 28.5087 41 24 41C19.4913 41 15.1673 39.2089 11.9792 36.0208C8.79107 32.8327 7 28.5087 7 24C7 14.6109 14.6109 7 24 7ZM23.5019 17.6981C23.1831 17.3794 22.7508 17.2004 22.3 17.2004C21.8492 17.2004 21.4169 17.3794 21.0981 17.6981L20.957 17.8579C20.7033 18.185 20.5776 18.5934 20.6036 19.0066C20.6296 19.4197 20.8054 19.8092 21.0981 20.1019L24.9945 24L21.0981 27.8981C20.7884 28.2187 20.6171 28.6481 20.621 29.0939C20.6248 29.5396 20.8036 29.966 21.1188 30.2812C21.434 30.5964 21.8604 30.7752 22.3061 30.779C22.7519 30.7829 23.1813 30.6116 23.5019 30.3019L28.6019 25.2019C28.9206 24.8831 29.0996 24.4508 29.0996 24C29.0996 23.5492 28.9206 23.1169 28.6019 22.7981L23.5019 17.6981Z" fill="#E9E9E9"/>
</svg>
