<svg width="48" height="48" viewBox="0 0 48 48" fill="none" xmlns="http://www.w3.org/2000/svg">
<circle cx="25" cy="24" r="8" fill="#555555"/>
<path d="M24 41C14.6109 41 7 33.3891 7 24C7 19.4913 8.79107 15.1673 11.9792 11.9792C15.1673 8.79106 19.4913 7 24 7C28.5087 7 32.8327 8.79106 36.0208 11.9792C39.2089 15.1673 41 19.4913 41 24C41 33.3891 33.3891 41 24 41ZM24.4981 30.3019C24.8169 30.6206 25.2492 30.7996 25.7 30.7996C26.1508 30.7996 26.5831 30.6206 26.9019 30.3019L27.043 30.1421C27.2967 29.815 27.4224 29.4066 27.3964 28.9934C27.3704 28.5803 27.1946 28.1908 26.9019 27.8981L23.0055 24L26.9019 20.1019C27.2116 19.7813 27.3829 19.3519 27.379 18.9061C27.3752 18.4604 27.1964 18.034 26.8812 17.7188C26.566 17.4036 26.1396 17.2248 25.6939 17.221C25.2481 17.2171 24.8187 17.3884 24.4981 17.6981L19.3981 22.7981C19.0794 23.1169 18.9004 23.5492 18.9004 24C18.9004 24.4508 19.0794 24.8831 19.3981 25.2019L24.4981 30.3019Z" fill="#E9E9E9"/>
</svg>
