<svg width="49" height="48" viewBox="0 0 49 48" fill="none" xmlns="http://www.w3.org/2000/svg">
<path d="M24.7147 25.6831C25.883 25.6831 27.0034 25.219 27.8295 24.393C28.6556 23.5669 29.1197 22.4465 29.1197 21.2782C29.1197 20.11 28.6556 18.9895 27.8295 18.1635C27.0034 17.3374 25.883 16.8733 24.7147 16.8733C23.5465 16.8733 22.4261 17.3374 21.6 18.1635C20.7739 18.9895 20.3098 20.11 20.3098 21.2782C20.3098 22.4465 20.7739 23.5669 21.6 24.393C22.4261 25.219 23.5465 25.6831 24.7147 25.6831Z" stroke="#959595" stroke-width="2.93661" stroke-linecap="round" stroke-linejoin="round"/>
<path d="M24.7148 11C35.2866 11 37.9295 13.643 37.9295 24.2148C37.9295 34.7866 35.2866 37.4295 24.7148 37.4295C14.143 37.4295 11.5 34.7866 11.5 24.2148C11.5 13.643 14.143 11 24.7148 11Z" stroke="#959595" stroke-width="2.93661" stroke-linecap="round" stroke-linejoin="round"/>
<path d="M15.9049 36.0347V35.9612C15.9049 34.4036 16.5237 32.9097 17.6252 31.8082C18.7266 30.7068 20.2205 30.088 21.7781 30.088H27.6514C29.2091 30.088 30.7029 30.7068 31.8044 31.8082C32.9058 32.9097 33.5246 34.4036 33.5246 35.9612V36.0347" stroke="#959595" stroke-width="2.93661" stroke-linecap="round" stroke-linejoin="round"/>
</svg>
