<svg width="28" height="29" viewBox="0 0 28 29" fill="none" xmlns="http://www.w3.org/2000/svg">
<path d="M5.83333 8.66663H7C7.61884 8.66663 8.21233 8.42079 8.64992 7.98321C9.0875 7.54562 9.33333 6.95213 9.33333 6.33329C9.33333 6.02387 9.45625 5.72713 9.67504 5.50833C9.89383 5.28954 10.1906 5.16663 10.5 5.16663H17.5C17.8094 5.16663 18.1062 5.28954 18.325 5.50833C18.5437 5.72713 18.6667 6.02387 18.6667 6.33329C18.6667 6.95213 18.9125 7.54562 19.3501 7.98321C19.7877 8.42079 20.3812 8.66663 21 8.66663H22.1667C22.7855 8.66663 23.379 8.91246 23.8166 9.35004C24.2542 9.78763 24.5 10.3811 24.5 11V21.5C24.5 22.1188 24.2542 22.7123 23.8166 23.1499C23.379 23.5875 22.7855 23.8333 22.1667 23.8333H5.83333C5.21449 23.8333 4.621 23.5875 4.18342 23.1499C3.74583 22.7123 3.5 22.1188 3.5 21.5V11C3.5 10.3811 3.74583 9.78763 4.18342 9.35004C4.621 8.91246 5.21449 8.66663 5.83333 8.66663Z" stroke="#CACACA" stroke-width="1.8" stroke-linecap="round" stroke-linejoin="round"/>
<path d="M10.5 15.6666C10.5 16.5949 10.8687 17.4851 11.5251 18.1415C12.1815 18.7979 13.0717 19.1666 14 19.1666C14.9283 19.1666 15.8185 18.7979 16.4749 18.1415C17.1313 17.4851 17.5 16.5949 17.5 15.6666C17.5 14.7384 17.1313 13.8481 16.4749 13.1918C15.8185 12.5354 14.9283 12.1666 14 12.1666C13.0717 12.1666 12.1815 12.5354 11.5251 13.1918C10.8687 13.8481 10.5 14.7384 10.5 15.6666Z" stroke="#CACACA" stroke-width="1.8" stroke-linecap="round" stroke-linejoin="round"/>
</svg>
