<svg width="19" height="18" viewBox="0 0 19 18" fill="none" xmlns="http://www.w3.org/2000/svg">
<path d="M14 7.00022L18 11.0002M18 7.00022L14 11.0002M4 12.0002H2C1.73478 12.0002 1.48043 11.8949 1.29289 11.7073C1.10536 11.5198 1 11.2654 1 11.0002V7.00022C1 6.735 1.10536 6.48065 1.29289 6.29311C1.48043 6.10557 1.73478 6.00022 2 6.00022H4L7.5 1.50022C7.5874 1.33045 7.73265 1.19754 7.90949 1.12551C8.08633 1.05348 8.2831 1.04708 8.46425 1.10746C8.6454 1.16784 8.79898 1.29103 8.89723 1.45476C8.99549 1.61849 9.03194 1.81196 9 2.00022V16.0002C9.03194 16.1885 8.99549 16.3819 8.89723 16.5457C8.79898 16.7094 8.6454 16.8326 8.46425 16.893C8.2831 16.9534 8.08633 16.947 7.90949 16.8749C7.73265 16.8029 7.5874 16.67 7.5 16.5002L4 12.0002Z" stroke="#555555" stroke-width="2" stroke-linecap="round" stroke-linejoin="round"/>
</svg>
