<svg width="26" height="26" viewBox="0 0 26 26" fill="none" xmlns="http://www.w3.org/2000/svg">
<path d="M15.6348 4.62424L21.3758 10.3652M2 24H7.74097L22.811 8.92996C23.188 8.553 23.487 8.10549 23.691 7.61297C23.895 7.12045 24 6.59258 24 6.05948C24 5.52638 23.895 4.9985 23.691 4.50598C23.487 4.01346 23.188 3.56595 22.811 3.18899C22.4341 2.81204 21.9865 2.51302 21.494 2.30901C21.0015 2.105 20.4736 2 19.9405 2C19.4074 2 18.8795 2.105 18.387 2.30901C17.8945 2.51302 17.447 2.81204 17.07 3.18899L2 18.259V24Z" stroke="#292929" stroke-width="2.4" stroke-linecap="round" stroke-linejoin="round"/>
</svg>
