<svg width="6" height="24" viewBox="0 0 6 24" fill="none" xmlns="http://www.w3.org/2000/svg">
<path d="M1.66663 12.0002C1.66663 12.3538 1.8071 12.6929 2.05715 12.943C2.3072 13.193 2.64634 13.3335 2.99996 13.3335C3.35358 13.3335 3.69272 13.193 3.94277 12.943C4.19282 12.6929 4.33329 12.3538 4.33329 12.0002C4.33329 11.6465 4.19282 11.3074 3.94277 11.0574C3.69272 10.8073 3.35358 10.6668 2.99996 10.6668C2.64634 10.6668 2.3072 10.8073 2.05715 11.0574C1.8071 11.3074 1.66663 11.6465 1.66663 12.0002ZM1.66663 21.3335C1.66663 21.6871 1.8071 22.0263 2.05715 22.2763C2.3072 22.5264 2.64634 22.6668 2.99996 22.6668C3.35358 22.6668 3.69272 22.5264 3.94277 22.2763C4.19282 22.0263 4.33329 21.6871 4.33329 21.3335C4.33329 20.9799 4.19282 20.6407 3.94277 20.3907C3.69272 20.1406 3.35358 20.0002 2.99996 20.0002C2.64634 20.0002 2.3072 20.1406 2.05715 20.3907C1.8071 20.6407 1.66663 20.9799 1.66663 21.3335ZM1.66663 2.66683C1.66663 3.02045 1.8071 3.35959 2.05715 3.60964C2.3072 3.85969 2.64634 4.00016 2.99996 4.00016C3.35358 4.00016 3.69272 3.85969 3.94277 3.60964C4.19282 3.35959 4.33329 3.02045 4.33329 2.66683C4.33329 2.31321 4.19282 1.97407 3.94277 1.72402C3.69272 1.47397 3.35358 1.3335 2.99996 1.3335C2.64634 1.3335 2.3072 1.47397 2.05715 1.72402C1.8071 1.97407 1.66663 2.31321 1.66663 2.66683Z" stroke="#E9E9E9" stroke-width="2.66667" stroke-linecap="round" stroke-linejoin="round"/>
</svg>
