<svg width="31" height="31" viewBox="0 0 31 31" fill="none" xmlns="http://www.w3.org/2000/svg">
<path d="M19.375 10.3333C20.3416 11.0583 21.0854 12.0398 21.522 13.1664C21.9586 14.293 22.0704 15.5195 21.8447 16.7064M20.066 20.0673C19.8501 20.2832 19.6192 20.4835 19.375 20.6667M22.8625 6.45833C24.9356 8.13368 26.37 10.4705 26.9254 13.0774C27.4808 15.6843 27.1235 18.4029 25.9134 20.7778M23.7486 23.7473C23.467 24.027 23.1712 24.2922 22.8625 24.5417M11.7141 6.52808L12.2708 5.8125C12.3837 5.59321 12.5713 5.42154 12.7998 5.3285C13.0282 5.23546 13.2823 5.22719 13.5163 5.30519C13.7503 5.38318 13.9487 5.5423 14.0756 5.75378C14.2025 5.96526 14.2496 6.21517 14.2083 6.45833V9.04167M14.2083 14.2083V24.5417C14.2496 24.7848 14.2025 25.0347 14.0756 25.2462C13.9487 25.4577 13.7503 25.6168 13.5163 25.6948C13.2823 25.7728 13.0282 25.7645 12.7998 25.6715C12.5713 25.5785 12.3837 25.4068 12.2708 25.1875L7.75 19.375H5.16667C4.8241 19.375 4.49555 19.2389 4.25332 18.9967C4.01109 18.7544 3.875 18.4259 3.875 18.0833V12.9167C3.875 12.5741 4.01109 12.2456 4.25332 12.0033C4.49555 11.7611 4.8241 11.625 5.16667 11.625H7.75L9.42142 9.47567M3.875 3.875L27.125 27.125" stroke="#CACACA" stroke-width="2.58333" stroke-linecap="round" stroke-linejoin="round"/>
</svg>
