<svg width="24" height="24" viewBox="0 0 24 24" fill="none" xmlns="http://www.w3.org/2000/svg">
<path d="M9.99991 12C9.99991 12.5304 10.2106 13.0391 10.5857 13.4142C10.9608 13.7893 11.4695 14 11.9999 14C12.5303 14 13.039 13.7893 13.4141 13.4142C13.7892 13.0391 13.9999 12.5304 13.9999 12C13.9999 11.4696 13.7892 10.9609 13.4141 10.5858C13.039 10.2107 12.5303 10 11.9999 10C11.4695 10 10.9608 10.2107 10.5857 10.5858C10.2106 10.9609 9.99991 11.4696 9.99991 12Z" stroke="#CACACA" stroke-width="2" stroke-linecap="round" stroke-linejoin="round"/>
<path d="M21 12C18.6 16 15.6 18 12 18C8.4 18 5.4 16 3 12C5.4 8 8.4 6 12 6C15.6 6 18.6 8 21 12Z" stroke="#CACACA" stroke-width="2" stroke-linecap="round" stroke-linejoin="round"/>
</svg>
