<svg width="45" height="45" viewBox="0 0 45 45" fill="none" xmlns="http://www.w3.org/2000/svg">
<path d="M15.9142 18.1096H15.9362M29.0853 18.1096H29.1072M2.74316 22.5C2.74316 25.0945 3.25418 27.6635 4.24704 30.0605C5.2399 32.4575 6.69516 34.6354 8.52973 36.47C10.3643 38.3046 12.5422 39.7598 14.9392 40.7527C17.3362 41.7455 19.9053 42.2566 22.4997 42.2566C25.0942 42.2566 27.6633 41.7455 30.0603 40.7527C32.4572 39.7598 34.6352 38.3046 36.4698 36.47C38.3043 34.6354 39.7596 32.4575 40.7524 30.0605C41.7453 27.6635 42.2563 25.0945 42.2563 22.5C42.2563 19.9055 41.7453 17.3364 40.7524 14.9395C39.7596 12.5425 38.3043 10.3645 36.4698 8.52998C34.6352 6.69541 32.4572 5.24015 30.0603 4.24729C27.6633 3.25443 25.0942 2.74341 22.4997 2.74341C19.9053 2.74341 17.3362 3.25443 14.9392 4.24729C12.5422 5.24015 10.3643 6.69541 8.52973 8.52998C6.69516 10.3645 5.2399 12.5425 4.24704 14.9395C3.25418 17.3364 2.74316 19.9055 2.74316 22.5Z" stroke="#959595" stroke-width="4.39035" stroke-linecap="round" stroke-linejoin="round"/>
<path d="M17.0117 29.0855C17.7271 29.8156 18.5809 30.3957 19.5233 30.7916C20.4656 31.1876 21.4775 31.3916 22.4997 31.3916C23.5218 31.3916 24.5337 31.1876 25.476 30.7916C26.4184 30.3957 27.2722 29.8156 27.9876 29.0855M22.4997 2.74341C21.3353 2.74341 20.2186 3.20596 19.3952 4.02931C18.5719 4.85266 18.1093 5.96937 18.1093 7.13376C18.1093 8.29815 18.5719 9.41486 19.3952 10.2382C20.2186 11.0616 21.3353 11.5241 22.4997 11.5241" stroke="#959595" stroke-width="4.39035" stroke-linecap="round" stroke-linejoin="round"/>
</svg>
