<svg width="45" height="45" viewBox="0 0 45 45" fill="none" xmlns="http://www.w3.org/2000/svg">
<path d="M2.74316 22.5C2.74316 25.0945 3.25418 27.6635 4.24704 30.0605C5.2399 32.4575 6.69516 34.6354 8.52973 36.47C10.3643 38.3046 12.5422 39.7598 14.9392 40.7527C17.3362 41.7455 19.9053 42.2566 22.4997 42.2566C25.0942 42.2566 27.6633 41.7455 30.0603 40.7527C32.4572 39.7598 34.6352 38.3046 36.4698 36.47C38.3043 34.6354 39.7596 32.4575 40.7524 30.0605C41.7453 27.6635 42.2563 25.0945 42.2563 22.5C42.2563 19.9055 41.7453 17.3364 40.7524 14.9395C39.7596 12.5425 38.3043 10.3645 36.4698 8.52998C34.6352 6.69541 32.4572 5.24015 30.0603 4.24729C27.6633 3.25443 25.0942 2.74341 22.4997 2.74341C19.9053 2.74341 17.3362 3.25443 14.9392 4.24729C12.5422 5.24015 10.3643 6.69541 8.52973 8.52998C6.69516 10.3645 5.2399 12.5425 4.24704 14.9395C3.25418 17.3364 2.74316 19.9055 2.74316 22.5Z" stroke="#C7242D" stroke-width="4.39035" stroke-linecap="round" stroke-linejoin="round"/>
<path d="M17.0119 29.0856C17.7272 29.8157 18.5811 30.3957 19.5234 30.7917C20.4658 31.1877 21.4777 31.3916 22.4998 31.3916C23.522 31.3916 24.5338 31.1877 25.4762 30.7917C26.4185 30.3957 27.2724 29.8157 27.9877 29.0856M3.84082 15.9145H9.32876M35.6709 15.9145H41.1588M18.1095 17.0121C21.0364 14.0852 23.9633 14.0852 26.8902 17.0121M9.32876 18.1097C9.32876 19.2741 9.79131 20.3908 10.6147 21.2142C11.438 22.0375 12.5547 22.5001 13.7191 22.5001C14.8835 22.5001 16.0002 22.0375 16.8236 21.2142C17.6469 20.3908 18.1095 19.2741 18.1095 18.1097C18.1095 16.9453 17.6469 15.8286 16.8236 15.0053C16.0002 14.1819 14.8835 13.7194 13.7191 13.7194C12.5547 13.7194 11.438 14.1819 10.6147 15.0053C9.79131 15.8286 9.32876 16.9453 9.32876 18.1097ZM26.8902 18.1097C26.8902 19.2741 27.3527 20.3908 28.1761 21.2142C28.9994 22.0375 30.1161 22.5001 31.2805 22.5001C32.4449 22.5001 33.5616 22.0375 34.385 21.2142C35.2083 20.3908 35.6709 19.2741 35.6709 18.1097C35.6709 16.9453 35.2083 15.8286 34.385 15.0053C33.5616 14.1819 32.4449 13.7194 31.2805 13.7194C30.1161 13.7194 28.9994 14.1819 28.1761 15.0053C27.3527 15.8286 26.8902 16.9453 26.8902 18.1097Z" stroke="#C7242D" stroke-width="4.39035" stroke-linecap="round" stroke-linejoin="round"/>
</svg>
