<svg width="49" height="47" viewBox="0 0 49 47" fill="none" xmlns="http://www.w3.org/2000/svg">
<path d="M35.4764 8.03613C37.687 9.51017 39.5776 11.415 41.0351 13.6366C42.4925 15.8582 43.4868 18.3509 43.9586 20.9657C44.7801 21.4969 45.4446 22.238 45.8835 23.1123C46.3223 23.9866 46.5195 24.9623 46.4545 25.9384C46.3896 26.9145 46.065 27.8555 45.5142 28.6639C44.9634 29.4724 44.2066 30.119 43.322 30.5367C42.0423 34.5193 39.5314 37.9929 36.1512 40.4572C32.771 42.9215 28.6958 44.2492 24.5126 44.2492C20.3295 44.2492 16.2543 42.9215 12.874 40.4572C9.49381 37.9929 6.98299 34.5193 5.70326 30.5367C4.81867 30.119 4.06181 29.4724 3.51104 28.6639C2.96027 27.8555 2.63562 26.9145 2.57069 25.9384C2.50577 24.9623 2.70294 23.9866 3.14178 23.1123C3.58062 22.238 4.24518 21.4969 5.06666 20.9657C5.52906 18.4028 6.49361 15.9565 7.90485 13.7677C9.31609 11.5789 11.1462 9.69071 13.2898 8.21175" stroke="#555555" stroke-width="4.39035" stroke-linecap="round" stroke-linejoin="round"/>
<path d="M19.0126 33.2808C19.7279 34.0109 20.5818 34.5909 21.5241 34.9869C22.4665 35.3829 23.4783 35.5869 24.5005 35.5869C25.5227 35.5869 26.5345 35.3829 27.4769 34.9869C28.4192 34.5909 29.2731 34.0109 29.9884 33.2808M16.8174 2.54834C20.1101 4.74352 22.3053 10.2315 22.3053 13.5242M25.5981 2.54834C28.8908 6.93869 29.9884 10.2315 29.9884 13.5242M17.915 24.5001H17.9369M31.086 24.5001H31.108" stroke="#555555" stroke-width="4.39035" stroke-linecap="round" stroke-linejoin="round"/>
</svg>
