<svg xmlns="http://www.w3.org/2000/svg" width="48" height="48" viewBox="0 0 48 48" fill="none">
  <circle cx="23" cy="24" r="5" fill="#121212"/>
  <path d="M29.2502 13.5409C30.9847 14.5424 32.4276 15.9795 33.4361 17.71C34.4445 19.4405 34.9834 21.4043 34.9996 23.4071C35.0158 25.4099 34.5086 27.3822 33.5283 29.1288C32.548 30.8753 31.1285 32.3356 29.4103 33.3649C27.6922 34.3943 25.735 34.9571 23.7326 34.9976C21.7301 35.0382 19.7517 34.555 17.9934 33.596C16.235 32.637 14.7576 31.2354 13.7074 29.5299C12.6572 27.8245 12.0706 25.8743 12.0058 23.8725L12 23.4999L12.0058 23.1273C12.0702 21.1412 12.6481 19.2057 13.6832 17.5095C14.7183 15.8133 16.1753 14.4142 17.9121 13.4487C19.6489 12.4832 21.6062 11.9842 23.5933 12.0004C25.5804 12.0165 27.5293 12.5473 29.2502 13.5409ZM21.7878 20.2109C21.5468 20.0674 21.2618 20.017 20.9862 20.069C20.7107 20.121 20.4636 20.2719 20.2915 20.4933C20.1195 20.7147 20.0342 20.9913 20.0518 21.2712C20.0694 21.551 20.1886 21.8148 20.3871 22.0129L21.8729 23.4999L20.3871 24.9868L20.2916 25.0949C20.1129 25.3261 20.0288 25.6166 20.0565 25.9074C20.0842 26.1983 20.2216 26.4677 20.4408 26.6609C20.6599 26.8542 20.9444 26.9568 21.2365 26.9478C21.5285 26.9389 21.8062 26.8192 22.0132 26.6129L23.5001 25.1271L24.9871 26.6129L25.0952 26.7084C25.3264 26.8871 25.6169 26.9711 25.9077 26.9434C26.1986 26.9157 26.468 26.7783 26.6612 26.5592C26.8545 26.34 26.9571 26.0556 26.9481 25.7635C26.9392 25.4715 26.8195 25.1938 26.6132 24.9868L25.1274 23.4999L26.6132 22.0129L26.7087 21.9048C26.8874 21.6737 26.9715 21.3832 26.9437 21.0923C26.916 20.8015 26.7787 20.532 26.5595 20.3388C26.3403 20.1456 26.0559 20.043 25.7638 20.0519C25.4718 20.0608 25.1941 20.1806 24.9871 20.3868L23.5001 21.8726L22.0132 20.3868L21.9051 20.2914L21.7878 20.2109Z" fill="white"/>
</svg>