<svg xmlns="http://www.w3.org/2000/svg" width="31" height="31" viewBox="0 0 31 31" fill="none">
  <path d="M21.9583 4.3137C23.9065 5.43856 25.5271 7.05271 26.6598 8.99638C27.7924 10.94 28.3978 13.1458 28.4159 15.3953C28.4341 17.6449 27.8645 19.8601 26.7634 21.8219C25.6623 23.7836 24.0679 25.4237 22.1382 26.5799C20.2084 27.736 18.0102 28.3682 15.7611 28.4137C13.5119 28.4592 11.2899 27.9165 9.31493 26.8394C7.33998 25.7622 5.68059 24.188 4.50104 22.2724C3.32148 20.3569 2.66266 18.1665 2.5898 15.918L2.58334 15.4995L2.5898 15.081C2.66214 12.8503 3.31126 10.6764 4.47388 8.77123C5.6365 6.86607 7.27294 5.29466 9.22366 4.21022C11.1744 3.12577 13.3728 2.5653 15.6046 2.58343C17.8365 2.60157 20.0255 3.1977 21.9583 4.3137ZM20.2882 12.003C20.0658 11.7806 19.7699 11.647 19.456 11.6273C19.1421 11.6075 18.8317 11.703 18.5832 11.8958L18.4618 12.003L14.2083 16.2552L12.5382 14.5863L12.4168 14.4791C12.1683 14.2865 11.858 14.1911 11.5442 14.2109C11.2303 14.2307 10.9345 14.3643 10.7121 14.5867C10.4898 14.809 10.3562 15.1049 10.3364 15.4187C10.3166 15.7325 10.4119 16.0428 10.6046 16.2913L10.7118 16.4127L13.2951 18.9961L13.4166 19.1033C13.6431 19.279 13.9216 19.3744 14.2083 19.3744C14.4951 19.3744 14.7736 19.279 15.0001 19.1033L15.1216 18.9961L20.2882 13.8294L20.3954 13.708C20.5882 13.4595 20.6837 13.1491 20.6639 12.8352C20.6442 12.5213 20.5106 12.2254 20.2882 12.003Z" fill="#B42127"/>
</svg>