<svg width="40" height="39" viewBox="0 0 40 39" fill="none" xmlns="http://www.w3.org/2000/svg">
<rect x="0.5" width="39" height="39" rx="19.5" fill="#121212"/>
<path d="M11.8333 13.667H13C13.6188 13.667 14.2123 13.4212 14.6499 12.9836C15.0875 12.546 15.3333 11.9525 15.3333 11.3337C15.3333 11.0242 15.4562 10.7275 15.675 10.5087C15.8938 10.2899 16.1906 10.167 16.5 10.167H23.5C23.8094 10.167 24.1062 10.2899 24.325 10.5087C24.5437 10.7275 24.6667 11.0242 24.6667 11.3337C24.6667 11.9525 24.9125 12.546 25.3501 12.9836C25.7877 13.4212 26.3812 13.667 27 13.667H28.1667C28.7855 13.667 29.379 13.9128 29.8166 14.3504C30.2542 14.788 30.5 15.3815 30.5 16.0003V26.5003C30.5 27.1192 30.2542 27.7127 29.8166 28.1502C29.379 28.5878 28.7855 28.8337 28.1667 28.8337H11.8333C11.2145 28.8337 10.621 28.5878 10.1834 28.1502C9.74583 27.7127 9.5 27.1192 9.5 26.5003V16.0003C9.5 15.3815 9.74583 14.788 10.1834 14.3504C10.621 13.9128 11.2145 13.667 11.8333 13.667Z" stroke="#CACACA" stroke-width="1.8" stroke-linecap="round" stroke-linejoin="round"/>
<path d="M16.5 20.667C16.5 21.5952 16.8687 22.4855 17.5251 23.1419C18.1815 23.7982 19.0717 24.167 20 24.167C20.9283 24.167 21.8185 23.7982 22.4749 23.1419C23.1313 22.4855 23.5 21.5952 23.5 20.667C23.5 19.7387 23.1313 18.8485 22.4749 18.1921C21.8185 17.5357 20.9283 17.167 20 17.167C19.0717 17.167 18.1815 17.5357 17.5251 18.1921C16.8687 18.8485 16.5 19.7387 16.5 20.667Z" stroke="#CACACA" stroke-width="1.8" stroke-linecap="round" stroke-linejoin="round"/>
</svg>
