<svg xmlns="http://www.w3.org/2000/svg" width="36" height="36" viewBox="0 0 36 36" fill="none">
  <path d="M18 6C11.3715 6 6 11.373 6 18C6 24.627 11.3715 30 18 30C24.6285 30 30 24.627 30 18C30 11.373 24.6285 6 18 6ZM23.5605 21.4395C23.8418 21.7208 23.9998 22.1022 23.9998 22.5C23.9998 22.8978 23.8418 23.2792 23.5605 23.5605C23.2792 23.8418 22.8978 23.9998 22.5 23.9998C22.1022 23.9998 21.7208 23.8418 21.4395 23.5605L18 20.121L14.5605 23.5605C14.4215 23.7003 14.2563 23.8112 14.0743 23.8869C13.8923 23.9626 13.6971 24.0016 13.5 24.0016C13.3029 24.0016 13.1077 23.9626 12.9257 23.8869C12.7437 23.8112 12.5785 23.7003 12.4395 23.5605C12.1583 23.2792 12.0003 22.8977 12.0003 22.5C12.0003 22.1023 12.1583 21.7208 12.4395 21.4395L15.879 18L12.4395 14.5605C12.1582 14.2792 12.0002 13.8978 12.0002 13.5C12.0002 13.1022 12.1582 12.7208 12.4395 12.4395C12.7208 12.1582 13.1022 12.0002 13.5 12.0002C13.8978 12.0002 14.2792 12.1582 14.5605 12.4395L18 15.879L21.4395 12.4395C21.7208 12.1582 22.1022 12.0002 22.5 12.0002C22.8978 12.0002 23.2792 12.1582 23.5605 12.4395C23.8418 12.7208 23.9998 13.1022 23.9998 13.5C23.9998 13.8978 23.8418 14.2792 23.5605 14.5605L20.121 18L23.5605 21.4395Z" fill="#CACACA"/>
</svg>