<svg xmlns="http://www.w3.org/2000/svg" width="9" height="9" viewBox="0 0 9 9" fill="none">
  <g clip-path="url(#clip0_2688_4101)">
    <path fill-rule="evenodd" clip-rule="evenodd" d="M8.77821 0.858081C8.86261 0.773685 8.91002 0.65922 8.91002 0.539867C8.91002 0.420513 8.86261 0.306048 8.77821 0.221652C8.69381 0.137257 8.57935 0.0898438 8.46 0.0898438C8.34064 0.0898437 8.22618 0.137257 8.14178 0.221652L4.5 3.86344L0.858211 0.221652C0.773815 0.137257 0.65935 0.0898438 0.539996 0.0898438C0.420643 0.0898438 0.306178 0.137257 0.221782 0.221652C0.137386 0.306048 0.0899735 0.420513 0.0899735 0.539867C0.0899735 0.65922 0.137386 0.773685 0.221782 0.858081L3.86357 4.49987L0.221782 8.14165C0.137386 8.22605 0.0899734 8.34051 0.0899734 8.45987C0.0899734 8.57922 0.137386 8.69368 0.221782 8.77808C0.306178 8.86248 0.420643 8.90989 0.539996 8.90989C0.65935 8.90989 0.773815 8.86248 0.858211 8.77808L4.5 5.13629L8.14178 8.77808C8.22618 8.86248 8.34064 8.90989 8.46 8.90989C8.57935 8.90989 8.69381 8.86248 8.77821 8.77808C8.86261 8.69368 8.91002 8.57922 8.91002 8.45987C8.91002 8.34051 8.86261 8.22605 8.77821 8.14165L5.13642 4.49987L8.77821 0.858081Z" fill="white"/>
  </g>
  <defs>
    <clipPath id="clip0_2688_4101">
      <rect width="9" height="9" fill="white"/>
    </clipPath>
  </defs>
</svg>