<svg xmlns="http://www.w3.org/2000/svg" width="32" height="32" viewBox="0 0 32 32" fill="none">
  <path d="M14.6667 15.9997C14.6667 16.3533 14.8071 16.6924 15.0572 16.9425C15.3072 17.1925 15.6464 17.333 16 17.333C16.3536 17.333 16.6928 17.1925 16.9428 16.9425C17.1928 16.6924 17.3333 16.3533 17.3333 15.9997C17.3333 15.6461 17.1928 15.3069 16.9428 15.0569C16.6928 14.8068 16.3536 14.6663 16 14.6663C15.6464 14.6663 15.3072 14.8068 15.0572 15.0569C14.8071 15.3069 14.6667 15.6461 14.6667 15.9997ZM14.6667 25.333C14.6667 25.6866 14.8071 26.0258 15.0572 26.2758C15.3072 26.5259 15.6464 26.6663 16 26.6663C16.3536 26.6663 16.6928 26.5259 16.9428 26.2758C17.1928 26.0258 17.3333 25.6866 17.3333 25.333C17.3333 24.9794 17.1928 24.6402 16.9428 24.3902C16.6928 24.1401 16.3536 23.9997 16 23.9997C15.6464 23.9997 15.3072 24.1401 15.0572 24.3902C14.8071 24.6402 14.6667 24.9794 14.6667 25.333ZM14.6667 6.66634C14.6667 7.01996 14.8071 7.3591 15.0572 7.60915C15.3072 7.8592 15.6464 7.99967 16 7.99967C16.3536 7.99967 16.6928 7.8592 16.9428 7.60915C17.1928 7.3591 17.3333 7.01996 17.3333 6.66634C17.3333 6.31272 17.1928 5.97358 16.9428 5.72353C16.6928 5.47348 16.3536 5.33301 16 5.33301C15.6464 5.33301 15.3072 5.47348 15.0572 5.72353C14.8071 5.97358 14.6667 6.31272 14.6667 6.66634Z" stroke="#E9E9E9" stroke-width="2.66667" stroke-linecap="round" stroke-linejoin="round"/>
</svg>