<svg xmlns="http://www.w3.org/2000/svg" width="48" height="48" viewBox="0 0 48 48" fill="none">
  <path d="M17.9306 25.7518L21.3733 29.2777M23.5354 23.4733L32.666 14.1099M36.4912 15.5568C36.3207 15.7169 36.12 15.8415 35.9008 15.9232C35.6816 16.005 35.4484 16.0423 35.2147 16.033C34.9809 16.0237 34.7514 15.968 34.5394 15.8691C34.3274 15.7702 34.1372 15.6302 33.9799 15.457L31.3688 12.796C31.0226 12.4623 30.819 12.0076 30.8004 11.5271C30.7818 11.0467 30.9497 10.5776 31.269 10.2181C31.5185 9.87887 31.8677 9.62274 32.2669 9.48637L40.2 7.05819C40.4948 6.97809 40.8059 6.98073 41.0993 7.06581C41.3927 7.15089 41.657 7.31512 41.8632 7.5405C42.0292 7.68497 42.165 7.86098 42.2625 8.05831C42.36 8.25564 42.4174 8.47037 42.4314 8.69005C42.4453 8.90973 42.4155 9.12999 42.3436 9.33806C42.2718 9.54613 42.1593 9.73786 42.0128 9.90215L36.4912 15.5568ZM22.0552 21.9932C21.5344 21.4363 21.1482 20.7674 20.9262 20.038C20.7042 19.3086 20.6524 18.538 20.7746 17.7854C20.9741 16.617 21.3736 15.4918 21.9554 14.4591C22.0857 14.221 22.1651 13.9584 22.1887 13.6879C22.2123 13.4175 22.1795 13.1451 22.0925 12.888C22.0054 12.6308 21.866 12.3946 21.6829 12.1941C21.4999 11.9936 21.2772 11.8333 21.029 11.7233C20.6824 11.5742 20.2984 11.535 19.9288 11.6108C19.5592 11.6866 19.2217 11.8739 18.9618 12.1474C17.3909 13.6758 16.3135 15.6394 15.8683 17.7854C15.5191 19.5317 14.2052 21.91 12.5421 21.9266C11.5203 21.9323 10.5101 22.1443 9.57231 22.5501C8.63451 22.9559 7.78837 23.547 7.08471 24.2879C6.38106 25.0289 5.83438 25.9044 5.47753 26.8618C5.12067 27.8193 4.96098 28.839 5.00805 29.8598C5.03218 32.5336 6.10754 35.0906 8.0017 36.978L9.79789 38.8407C10.6916 39.7917 11.7679 40.5528 12.9623 41.0786C14.1567 41.6043 15.4449 41.884 16.7498 41.9009C17.7625 41.9187 18.7685 41.7335 19.7084 41.3562C20.6484 40.9788 21.5032 40.4171 22.2225 39.704C22.9418 38.9909 23.511 38.1409 23.8964 37.2043C24.2819 36.2676 24.4758 35.2633 24.4668 34.2505C24.4668 32.4044 26.4625 31.2568 28.1755 31.3233C29.1762 31.4046 30.1823 31.2582 31.1184 30.8953C32.0545 30.5324 32.8963 29.9623 33.5807 29.2278C33.8184 28.9738 33.9802 28.6583 34.0478 28.3171C34.1154 27.9758 34.086 27.6225 33.9631 27.2971C33.8402 26.9716 33.6287 26.6871 33.3524 26.4757C33.0761 26.2644 32.7462 26.1346 32.3999 26.1011C27.0113 25.6521 25.8638 25.835 24.4169 24.3382L22.0552 21.9932Z" stroke="white" stroke-width="2.1" stroke-linecap="round" stroke-linejoin="round"/>
  <path d="M11.9434 32.8534C11.9449 33.5198 12.2028 34.1599 12.6635 34.6413C12.8881 34.8768 13.1581 35.0643 13.4573 35.1924C13.7565 35.3205 14.0785 35.3866 14.404 35.3866C14.7294 35.3866 15.0515 35.3205 15.3506 35.1924C15.6498 35.0643 15.9199 34.8768 16.1444 34.6413C16.3748 34.4059 16.5562 34.1272 16.6783 33.8214C16.9281 33.2003 16.9281 32.5066 16.6783 31.8855C16.5567 31.5798 16.3758 31.3011 16.1461 31.0656C15.921 30.8309 15.6508 30.6441 15.3517 30.5166C15.0526 30.389 14.7308 30.3232 14.4056 30.3232C14.0805 30.3232 13.7587 30.389 13.4596 30.5166C13.1604 30.6441 12.8902 30.8309 12.6652 31.0656C12.2044 31.5469 11.9449 32.1871 11.9434 32.8534Z" stroke="white" stroke-width="2.1" stroke-linecap="round" stroke-linejoin="round"/>
</svg>