<svg xmlns="http://www.w3.org/2000/svg" width="16" height="16" viewBox="0 0 16 16" fill="none">
  <g clip-path="url(#clip0_1314_5663)">
    <path d="M5.67999 8.5274L7.05999 9.94073M7.92666 7.61407L11.5867 3.86073M13.12 4.44073C13.0516 4.50491 12.9712 4.55484 12.8833 4.58761C12.7955 4.62038 12.702 4.63534 12.6083 4.63162C12.5146 4.6279 12.4226 4.60556 12.3376 4.56592C12.2526 4.52629 12.1764 4.47013 12.1133 4.40073L11.0667 3.33407C10.9279 3.20029 10.8463 3.01804 10.8388 2.82544C10.8314 2.63285 10.8987 2.44484 11.0267 2.30073C11.1267 2.16473 11.2667 2.06207 11.4267 2.0074L14.6067 1.03407C14.7248 1.00196 14.8495 1.00302 14.9671 1.03712C15.0847 1.07123 15.1907 1.13706 15.2733 1.2274C15.3399 1.28531 15.3943 1.35586 15.4334 1.43496C15.4725 1.51407 15.4955 1.60014 15.5011 1.6882C15.5067 1.77626 15.4947 1.86455 15.4659 1.94795C15.4371 2.03135 15.3921 2.10821 15.3333 2.17407L13.12 4.44073ZM7.33333 7.02073C7.12458 6.7975 6.96976 6.5294 6.88078 6.23702C6.79179 5.94463 6.771 5.63574 6.81999 5.33407C6.89996 4.86572 7.06009 4.41467 7.29333 4.00073C7.34555 3.90526 7.37739 3.8 7.38685 3.69159C7.39631 3.58319 7.38317 3.474 7.34827 3.37093C7.31337 3.26786 7.25747 3.17315 7.18409 3.09279C7.11072 3.01243 7.02147 2.94817 6.92199 2.90407C6.78305 2.84432 6.62913 2.82859 6.48097 2.85898C6.33281 2.88938 6.19753 2.96444 6.09333 3.07407C5.46364 3.68671 5.03176 4.47383 4.85333 5.33407C4.71333 6.03407 4.18666 6.9874 3.51999 6.99407C3.1104 6.99633 2.70549 7.08133 2.32957 7.24399C1.95365 7.40664 1.61448 7.64358 1.33242 7.94059C1.05036 8.23759 0.831227 8.58853 0.688181 8.97234C0.545134 9.35615 0.481124 9.7649 0.499993 10.1741C0.509664 11.2459 0.940722 12.2708 1.69999 13.0274L2.41999 13.7741C2.77825 14.1553 3.20966 14.4603 3.68844 14.6711C4.16723 14.8819 4.68358 14.994 5.20666 15.0007C5.6126 15.0079 6.01585 14.9336 6.39263 14.7824C6.76941 14.6311 7.11207 14.4059 7.40039 14.1201C7.68872 13.8343 7.91687 13.4936 8.07138 13.1181C8.22588 12.7426 8.30362 12.3401 8.29999 11.9341C8.29999 11.1941 9.09999 10.7341 9.78666 10.7607C10.1878 10.7933 10.5911 10.7346 10.9663 10.5892C11.3415 10.4437 11.679 10.2152 11.9533 9.92073C12.0486 9.81891 12.1134 9.69245 12.1405 9.55566C12.1676 9.41888 12.1559 9.27725 12.1066 9.1468C12.0573 9.01635 11.9725 8.9023 11.8618 8.81758C11.751 8.73285 11.6188 8.68083 11.48 8.6674C9.31999 8.4874 8.85999 8.56073 8.27999 7.96073L7.33333 7.02073Z" stroke="#CACACA" stroke-linecap="round" stroke-linejoin="round"/>
    <path d="M3.28 11.3736C3.28062 11.6407 3.38399 11.8973 3.56867 12.0903C3.65869 12.1847 3.76694 12.2598 3.88686 12.3112C4.00678 12.3625 4.13588 12.389 4.26633 12.389C4.39679 12.389 4.52588 12.3625 4.6458 12.3112C4.76572 12.2598 4.87397 12.1847 4.964 12.0903C5.05633 11.9959 5.12906 11.8842 5.178 11.7616C5.27812 11.5126 5.27812 11.2346 5.178 10.9856C5.12926 10.863 5.05675 10.7513 4.96467 10.6569C4.87444 10.5629 4.76613 10.488 4.64623 10.4369C4.52634 10.3857 4.39734 10.3594 4.267 10.3594C4.13665 10.3594 4.00766 10.3857 3.88776 10.4369C3.76787 10.488 3.65955 10.5629 3.56933 10.6569C3.38465 10.8499 3.28062 11.1065 3.28 11.3736Z" stroke="#CACACA" stroke-linecap="round" stroke-linejoin="round"/>
  </g>
  <defs>
    <clipPath id="clip0_1314_5663">
      <rect width="16" height="16" fill="white"/>
    </clipPath>
  </defs>
</svg>