<svg xmlns="http://www.w3.org/2000/svg" width="41" height="41" viewBox="0 0 41 41" fill="none">
  <path d="M17.8334 19.6667V18C17.8334 17.337 18.0968 16.7011 18.5656 16.2322C19.0344 15.7634 19.6703 15.5 20.3334 15.5C20.9964 15.5 21.6323 15.7634 22.1011 16.2322C22.57 16.7011 22.8334 17.337 22.8334 18V20.5" stroke="#B42127" stroke-width="3.33333" stroke-linecap="round" stroke-linejoin="round"/>
  <path d="M27.8334 20.5003V9.66699C27.8334 9.00395 28.0968 8.36807 28.5656 7.89922C29.0345 7.43038 29.6704 7.16699 30.3334 7.16699C30.9964 7.16699 31.6323 7.43038 32.1012 7.89922C32.57 8.36807 32.8334 9.00395 32.8334 9.66699V27.167C32.8334 29.8192 31.7798 32.3627 29.9045 34.2381C28.0291 36.1134 25.4856 37.167 22.8334 37.167H19.5001H19.8467C18.1906 37.1673 16.5604 36.7562 15.1024 35.9708C13.6444 35.1854 12.4043 34.0501 11.4934 32.667L11.1667 32.167C10.6467 31.3692 8.82117 28.187 5.69006 22.6203C5.37081 22.0529 5.28553 21.3833 5.45237 20.7539C5.6192 20.1246 6.02497 19.5851 6.5834 19.2503C7.17845 18.8943 7.87524 18.7469 8.5635 18.8314C9.25176 18.9159 9.89217 19.2276 10.3834 19.717L12.8334 22.167" stroke="#B42127" stroke-width="3.33333" stroke-linecap="round" stroke-linejoin="round"/>
  <path d="M22.8334 18C22.8334 17.337 23.0968 16.7011 23.5656 16.2322C24.0344 15.7634 24.6703 15.5 25.3334 15.5C25.9964 15.5 26.6323 15.7634 27.1011 16.2322C27.57 16.7011 27.8334 17.337 27.8334 18V20.5M12.8334 22.1667L12.8334 8C12.8334 7.33696 13.0968 6.70107 13.5656 6.23223C14.0344 5.76339 14.6703 5.5 15.3334 5.5C15.9964 5.5 16.6323 5.76339 17.1011 6.23223C17.57 6.70107 17.8334 7.33696 17.8334 8V20.5" stroke="#B42127" stroke-width="3.33333" stroke-linecap="round" stroke-linejoin="round"/>
</svg>