<svg xmlns="http://www.w3.org/2000/svg" width="35" height="35" viewBox="0 0 35 35" fill="none">
  <path fill-rule="evenodd" clip-rule="evenodd" d="M4.375 16.0417C4.375 10.5423 4.375 7.79187 6.08417 6.08417C7.79333 4.37646 10.5423 4.375 16.0417 4.375H18.9583C24.4577 4.375 27.2081 4.375 28.9158 6.08417C30.6235 7.79333 30.625 10.5423 30.625 16.0417V18.9583C30.625 24.4577 30.625 27.2081 28.9158 28.9158C27.2067 30.6235 24.4577 30.625 18.9583 30.625H16.0417C10.5423 30.625 7.79187 30.625 6.08417 28.9158C4.37646 27.2067 4.375 24.4577 4.375 18.9583V16.0417ZM26.25 10.9375C26.25 11.5177 26.0195 12.0741 25.6093 12.4843C25.1991 12.8945 24.6427 13.125 24.0625 13.125C23.4823 13.125 22.9259 12.8945 22.5157 12.4843C22.1055 12.0741 21.875 11.5177 21.875 10.9375C21.875 10.3573 22.1055 9.80094 22.5157 9.3907C22.9259 8.98047 23.4823 8.75 24.0625 8.75C24.6427 8.75 25.1991 8.98047 25.6093 9.3907C26.0195 9.80094 26.25 10.3573 26.25 10.9375ZM20.4167 18.9583C20.4167 19.7319 20.1094 20.4737 19.5624 21.0207C19.0154 21.5677 18.2735 21.875 17.5 21.875C16.7265 21.875 15.9846 21.5677 15.4376 21.0207C14.8906 20.4737 14.5833 19.7319 14.5833 18.9583C14.5833 18.1848 14.8906 17.4429 15.4376 16.8959C15.9846 16.349 16.7265 16.0417 17.5 16.0417C18.2735 16.0417 19.0154 16.349 19.5624 16.8959C20.1094 17.4429 20.4167 18.1848 20.4167 18.9583ZM23.3333 18.9583C23.3333 20.5054 22.7188 21.9892 21.6248 23.0831C20.5308 24.1771 19.0471 24.7917 17.5 24.7917C15.9529 24.7917 14.4692 24.1771 13.3752 23.0831C12.2812 21.9892 11.6667 20.5054 11.6667 18.9583C11.6667 17.4112 12.2812 15.9275 13.3752 14.8335C14.4692 13.7396 15.9529 13.125 17.5 13.125C19.0471 13.125 20.5308 13.7396 21.6248 14.8335C22.7188 15.9275 23.3333 17.4112 23.3333 18.9583Z" fill="#E9E9E9"/>
</svg>