<svg xmlns="http://www.w3.org/2000/svg" width="16" height="17" viewBox="0 0 16 17" fill="none">
  <path d="M10 9.09972C10.7021 9.24259 11.4315 9.15546 12.0801 8.85124C12.7288 8.54702 13.2621 8.04191 13.6012 7.41076C13.9402 6.77961 14.0669 6.05602 13.9624 5.34724C13.8579 4.63845 13.5279 3.98219 13.0211 3.47571C12.5144 2.96924 11.858 2.63951 11.1491 2.53539C10.4403 2.43127 9.71675 2.55831 9.08578 2.89768C8.45481 3.23704 7.94996 3.77067 7.64608 4.41948C7.34219 5.06829 7.25543 5.79774 7.39866 6.49972M10 9.09972L7.39866 6.50039L2.39 12.2231C2.13981 12.473 1.99915 12.8121 1.99896 13.1657C1.99887 13.3408 2.03327 13.5142 2.10019 13.676C2.16711 13.8378 2.26525 13.9848 2.389 14.1087C2.51275 14.2326 2.65968 14.3309 2.82142 14.398C2.98316 14.4651 3.15652 14.4997 3.33162 14.4998C3.68525 14.4999 4.02448 14.3596 4.27466 14.1097L10 9.09972Z" stroke="#B42127" stroke-width="1.1891" stroke-linecap="round" stroke-linejoin="round"/>
</svg>