<svg xmlns="http://www.w3.org/2000/svg" width="16" height="16" viewBox="0 0 16 16" fill="none">
  <path d="M10 8.59972C10.7021 8.74259 11.4315 8.65546 12.0801 8.35124C12.7288 8.04702 13.2621 7.54191 13.6012 6.91076C13.9402 6.27961 14.0669 5.55602 13.9624 4.84724C13.8579 4.13845 13.5279 3.48219 13.0211 2.97571C12.5144 2.46924 11.858 2.13951 11.1491 2.03539C10.4403 1.93127 9.71675 2.05831 9.08578 2.39768C8.45481 2.73704 7.94996 3.27067 7.64608 3.91948C7.34219 4.56829 7.25543 5.29774 7.39866 5.99972M10 8.59972L7.39866 6.00039L2.39 11.7231C2.13981 11.973 1.99915 12.3121 1.99896 12.6657C1.99887 12.8408 2.03327 13.0142 2.10019 13.176C2.16711 13.3378 2.26525 13.4848 2.389 13.6087C2.51275 13.7326 2.65968 13.8309 2.82142 13.898C2.98316 13.9651 3.15652 13.9997 3.33162 13.9998C3.68525 13.9999 4.02448 13.8596 4.27466 13.6097L10 8.59972Z" stroke="#CACACA" stroke-width="1.1891" stroke-linecap="round" stroke-linejoin="round"/>
</svg>