<svg xmlns="http://www.w3.org/2000/svg" width="48" height="48" viewBox="0 0 48 48" fill="none">
  <path d="M38.1628 24.0807C38.1627 21.0273 37.2357 18.0458 35.5044 15.5305C33.7732 13.0153 31.3192 11.0848 28.4671 9.99441C25.6149 8.904 22.499 8.70502 19.5313 9.4238C16.5636 10.1426 13.8841 11.7452 11.8469 14.0198C9.8098 16.2944 8.51111 19.1338 8.12259 22.1625C7.73407 25.1911 8.27404 28.2664 9.67108 30.9815C11.0681 33.6967 13.2564 35.9238 15.9466 37.3683C18.6367 38.8129 21.702 39.4069 24.737 39.0717M18.0543 20.7293H18.071M28.1085 20.7293H28.1253" stroke="#959595" stroke-width="2.51357" stroke-linecap="round" stroke-linejoin="round"/>
  <path d="M18.8922 29.1074C19.5062 29.696 20.2378 30.1481 21.0389 30.434C21.8401 30.72 22.6926 30.8332 23.5406 30.7664M34.8014 39.9995L39.0208 35.6762C39.5444 35.1338 39.8377 34.4097 39.8389 33.6558C39.8402 32.9019 39.5494 32.1768 39.0275 31.6327C38.7737 31.3675 38.4689 31.1563 38.1314 31.0117C37.794 30.8672 37.4308 30.7923 37.0637 30.7915C36.6966 30.7907 36.3331 30.8641 35.995 31.0072C35.6569 31.1503 35.3512 31.3602 35.0963 31.6243L34.8148 31.9126L34.5332 31.6243C34.2793 31.3592 33.9744 31.1481 33.6369 31.0037C33.2994 30.8593 32.9362 30.7846 32.5691 30.7839C32.2019 30.7833 31.8385 30.8568 31.5005 31.0001C31.1625 31.1433 30.8569 31.3534 30.602 31.6176C30.0789 32.1599 29.786 32.8837 29.7847 33.6372C29.7835 34.3907 30.074 35.1154 30.5953 35.6595L34.8014 39.9995Z" stroke="#959595" stroke-width="2.51357" stroke-linecap="round" stroke-linejoin="round"/>
</svg>