<svg xmlns="http://www.w3.org/2000/svg" width="20" height="20" viewBox="0 0 20 20" fill="none">
  <path d="M2.5 14.166C2.5 14.8291 2.76339 15.4649 3.23223 15.9338C3.70107 16.4026 4.33696 16.666 5 16.666C5.66304 16.666 6.29893 16.4026 6.76777 15.9338C7.23661 15.4649 7.5 14.8291 7.5 14.166C7.5 13.503 7.23661 12.8671 6.76777 12.3982C6.29893 11.9294 5.66304 11.666 5 11.666C4.33696 11.666 3.70107 11.9294 3.23223 12.3982C2.76339 12.8671 2.5 13.503 2.5 14.166ZM10.8333 14.166C10.8333 14.8291 11.0967 15.4649 11.5656 15.9338C12.0344 16.4026 12.6703 16.666 13.3333 16.666C13.9964 16.666 14.6323 16.4026 15.1011 15.9338C15.5699 15.4649 15.8333 14.8291 15.8333 14.166C15.8333 13.503 15.5699 12.8671 15.1011 12.3982C14.6323 11.9294 13.9964 11.666 13.3333 11.666C12.6703 11.666 12.0344 11.9294 11.5656 12.3982C11.0967 12.8671 10.8333 13.503 10.8333 14.166Z" stroke="#959595" stroke-width="1.66667" stroke-linecap="round" stroke-linejoin="round"/>
  <path d="M7.5 14.1673V3.33398H15.8333V14.1673M7.5 6.66732H15.8333" stroke="#959595" stroke-width="1.66667" stroke-linecap="round" stroke-linejoin="round"/>
</svg>