<svg xmlns="http://www.w3.org/2000/svg" width="26" height="27" viewBox="0 0 26 27" fill="none">
  <path d="M6.5 4.83364V22.167C6.49995 22.3597 6.55132 22.549 6.64883 22.7153C6.74634 22.8816 6.88644 23.0188 7.05469 23.1129C7.22294 23.2069 7.41324 23.2544 7.60596 23.2504C7.79867 23.2463 7.98683 23.191 8.151 23.09L22.2343 14.4233C22.3921 14.3264 22.5223 14.1907 22.6127 14.0291C22.7031 13.8675 22.7505 13.6854 22.7505 13.5003C22.7505 13.3152 22.7031 13.1331 22.6127 12.9715C22.5223 12.81 22.3921 12.6742 22.2343 12.5773L8.151 3.91064C7.98683 3.80963 7.79867 3.75426 7.60596 3.75024C7.41324 3.74621 7.22294 3.79368 7.05469 3.88774C6.88644 3.9818 6.74634 4.11905 6.64883 4.28532C6.55132 4.4516 6.49995 4.64088 6.5 4.83364Z" fill="white"/>
</svg>