<svg xmlns="http://www.w3.org/2000/svg" width="31" height="31" viewBox="0 0 31 31" fill="none">
  <path d="M6.36664 6.36648C7.56038 5.14209 8.98536 4.16692 10.5589 3.49754C12.1325 2.82816 13.8233 2.47789 15.5333 2.46706C17.2432 2.45622 18.9384 2.78503 20.5203 3.43442C22.1022 4.0838 23.5394 5.04084 24.7486 6.25C25.9577 7.45916 26.9148 8.89639 27.5642 10.4783C28.2135 12.0602 28.5424 13.7553 28.5315 15.4653C28.5207 17.1753 28.1704 18.8661 27.501 20.4397C26.8317 22.0132 25.8565 23.4382 24.6321 24.6319C22.196 26.9848 18.9332 28.2867 15.5465 28.2573C12.1598 28.2279 8.92012 26.8694 6.52527 24.4746C4.13042 22.0797 2.77198 18.8401 2.74255 15.4534C2.71312 12.0667 4.01505 8.80388 6.36793 6.36777L6.36664 6.36648ZM16.7917 11.6249C16.7917 11.2823 16.6556 10.9537 16.4134 10.7115C16.1711 10.4693 15.8426 10.3332 15.5 10.3332C15.1574 10.3332 14.8289 10.4693 14.5867 10.7115C14.3444 10.9537 14.2083 11.2823 14.2083 11.6249V14.2082H11.625C11.2824 14.2082 10.9539 14.3443 10.7117 14.5865C10.4694 14.8287 10.3333 15.1573 10.3333 15.4999C10.3333 15.8424 10.4694 16.171 10.7117 16.4132C10.9539 16.6554 11.2824 16.7915 11.625 16.7915H14.2083V19.3749C14.2083 19.7174 14.3444 20.046 14.5867 20.2882C14.8289 20.5304 15.1574 20.6665 15.5 20.6665C15.8426 20.6665 16.1711 20.5304 16.4134 20.2882C16.6556 20.046 16.7917 19.7174 16.7917 19.3749V16.7915H19.375C19.7176 16.7915 20.0461 16.6554 20.2884 16.4132C20.5306 16.171 20.6667 15.8424 20.6667 15.4999C20.6667 15.1573 20.5306 14.8287 20.2884 14.5865C20.0461 14.3443 19.7176 14.2082 19.375 14.2082H16.7917V11.6249Z" fill="#E9E9E9"/>
</svg>