<svg xmlns="http://www.w3.org/2000/svg" width="35" height="35" viewBox="0 0 35 35" fill="none">
  <path d="M23.4544 2.91699H17.5C17.1132 2.91699 16.7423 3.07064 16.4688 3.34413C16.1953 3.61762 16.0417 3.98855 16.0417 4.37533V21.1462C16.0419 21.5095 15.9515 21.8672 15.7788 22.1869C15.6062 22.5066 15.3566 22.7782 15.0526 22.9773C14.7486 23.1763 14.3998 23.2965 14.0378 23.327C13.6757 23.3575 13.3118 23.2973 12.9788 23.1519C12.6458 23.0065 12.3543 22.7805 12.1305 22.4942C11.9068 22.2079 11.7579 21.8703 11.6973 21.5121C11.6367 21.1538 11.6663 20.7861 11.7834 20.4422C11.9005 20.0982 12.1015 19.7888 12.3681 19.542L12.5431 19.3962C12.724 19.2602 12.8707 19.084 12.9717 18.8815C13.0727 18.679 13.1252 18.4558 13.125 18.2295V11.9207C13.1252 11.7006 13.0755 11.4833 12.9798 11.2851C12.884 11.0869 12.7446 10.9129 12.572 10.7763C12.3994 10.6396 12.1982 10.5438 11.9833 10.496C11.7684 10.4482 11.5455 10.4497 11.3313 10.5003C8.7195 11.1159 6.42514 12.67 4.88468 14.8671C3.34422 17.0642 2.66517 19.7509 2.9767 22.416C3.28824 25.0812 4.56863 27.5388 6.57428 29.3214C8.57992 31.104 11.1709 32.0871 13.8542 32.0837L14.2086 32.0764C17.0462 31.9844 19.737 30.7926 21.7119 28.7528C23.6869 26.7131 24.7913 23.9853 24.7917 21.1462V17.2087L25.2452 17.4318C26.8815 18.2047 28.6475 18.6976 30.4806 18.8799C30.6834 18.9001 30.8882 18.8775 31.0818 18.8137C31.2753 18.7499 31.4533 18.6462 31.6043 18.5093C31.7553 18.3725 31.876 18.2055 31.9585 18.0191C32.041 17.8328 32.0835 17.6312 32.0833 17.4274V11.546C32.0833 11.2012 31.9611 10.8676 31.7385 10.6043C31.5158 10.3411 31.2071 10.1653 30.8671 10.108C29.3748 9.85482 27.9981 9.1439 26.9276 8.0737C25.8571 7.00351 25.1459 5.62698 24.8923 4.1347C24.8354 3.79445 24.6597 3.48539 24.3964 3.26244C24.1331 3.03949 23.7994 2.91709 23.4544 2.91699Z" fill="#E9E9E9"/>
</svg>