<svg xmlns="http://www.w3.org/2000/svg" width="48" height="48" viewBox="0 0 48 48" fill="none">
  <path d="M27.957 17.8866C28.8862 18.5835 29.6404 19.4873 30.1599 20.5262C30.6793 21.5651 30.9498 22.7107 30.9498 23.8723C30.9498 25.0338 30.6793 26.1794 30.1599 27.2183C29.6404 28.2573 28.8862 29.161 27.957 29.8579M31.9973 13.3974C33.5595 14.6598 34.8195 16.2557 35.6851 18.0682C36.5507 19.8806 37 21.8637 37 23.8723C37 25.8808 36.5507 27.8639 35.6851 29.6764C34.8195 31.4888 33.5595 33.0847 31.9973 34.3471M14.4892 28.3615H11.4964C11.0995 28.3615 10.7189 28.2038 10.4383 27.9232C10.1577 27.6426 10 27.262 10 26.8651V20.8794C10 20.4826 10.1577 20.1019 10.4383 19.8213C10.7189 19.5407 11.0995 19.383 11.4964 19.383H14.4892L19.7267 12.6492C19.8575 12.3951 20.0748 12.1962 20.3395 12.0884C20.6041 11.9807 20.8985 11.9711 21.1696 12.0614C21.4407 12.1518 21.6705 12.3361 21.8175 12.5811C21.9646 12.8261 22.0191 13.1157 21.9713 13.3974V34.3471C22.0191 34.6289 21.9646 34.9184 21.8175 35.1634C21.6705 35.4084 21.4407 35.5927 21.1696 35.6831C20.8985 35.7734 20.6041 35.7639 20.3395 35.6561C20.0748 35.5483 19.8575 35.3494 19.7267 35.0954L14.4892 28.3615Z" stroke="#E9E9E9" stroke-width="2.55" stroke-linecap="round" stroke-linejoin="round"/>
</svg>