<svg xmlns="http://www.w3.org/2000/svg" width="40" height="40" viewBox="0 0 40 40" fill="none">
  <path d="M23.7142 14.9851C24.6474 15.685 25.3655 16.6326 25.787 17.7202C26.2085 18.8079 26.3164 19.9919 26.0985 21.1379M24.3814 24.3826C24.1729 24.591 23.95 24.7844 23.7142 24.9612M27.0812 11.244C29.0826 12.8615 30.4674 15.1175 31.0036 17.6343C31.5398 20.1511 31.1949 22.7757 30.0266 25.0685M27.9366 27.9354C27.6647 28.2054 27.3792 28.4614 27.0812 28.7023M16.3182 11.3114L16.8556 10.6205C16.9646 10.4088 17.1457 10.2431 17.3663 10.1533C17.5868 10.0634 17.8322 10.0555 18.0581 10.1308C18.284 10.2061 18.4755 10.3597 18.598 10.5638C18.7205 10.768 18.766 11.0093 18.7261 11.244V13.7381M18.7261 18.7261V28.7023C18.766 28.9371 18.7205 29.1783 18.598 29.3825C18.4755 29.5867 18.284 29.7403 18.0581 29.8156C17.8322 29.8909 17.5868 29.8829 17.3663 29.7931C17.1457 29.7032 16.9646 29.5375 16.8556 29.3258L12.4911 23.7142H9.99702C9.66629 23.7142 9.3491 23.5828 9.11524 23.349C8.88138 23.1151 8.75 22.7979 8.75 22.4672V17.4791C8.75 17.1484 8.88138 16.8312 9.11524 16.5974C9.3491 16.3635 9.66629 16.2321 9.99702 16.2321H12.4911L14.1047 14.1571M8.75 8.75L31.1963 31.1963" stroke="#E9E9E9" stroke-width="2.125" stroke-linecap="round" stroke-linejoin="round"/>
</svg>