<svg xmlns="http://www.w3.org/2000/svg" width="35" height="35" viewBox="0 0 35 35" fill="none">
  <path fill-rule="evenodd" clip-rule="evenodd" d="M17.5 6.05176C15.7631 6.05176 13.7375 6.09259 11.7629 6.14801L11.6827 6.15092C9.67308 6.2078 8.05142 6.25301 6.77392 6.46447C5.44246 6.68467 4.33704 7.10613 3.45329 8.01467C2.56663 8.92613 2.18017 10.0534 1.99788 11.4024C1.82288 12.7003 1.82288 14.3453 1.82288 16.3899V18.6124C1.82288 20.654 1.82288 22.299 1.99788 23.5984C2.17871 24.9474 2.56663 26.0747 3.45329 26.9861C4.33704 27.8961 5.44246 28.3161 6.77392 28.5363C8.05142 28.7478 9.67308 28.793 11.6827 28.8499L11.7629 28.8528C13.7389 28.9082 15.7631 28.949 17.5 28.949C19.2368 28.949 21.2625 28.9082 23.237 28.8528L23.3173 28.8499C25.3268 28.793 26.9485 28.7478 28.226 28.5363C29.5575 28.3161 30.6629 27.8947 31.5466 26.9861C32.4333 26.0747 32.8212 24.9474 33.002 23.5984C33.177 22.3005 33.177 20.6555 33.177 18.6109V16.3884C33.177 14.3453 33.177 12.7003 33.002 11.4024C32.8212 10.0534 32.4333 8.92613 31.5466 8.01467C30.6629 7.10467 29.5575 6.68467 28.226 6.46447C26.9485 6.25301 25.3268 6.2078 23.3158 6.15092L23.237 6.14801C21.3252 6.08998 19.4127 6.05789 17.5 6.05176ZM15.855 21.3657C15.6886 21.4607 15.5003 21.5104 15.3088 21.5097C15.1172 21.5091 14.9292 21.4581 14.7636 21.362C14.5979 21.2659 14.4604 21.128 14.3647 20.962C14.2691 20.796 14.2188 20.6079 14.2187 20.4163V14.583C14.2188 14.3915 14.2691 14.2033 14.3647 14.0373C14.4604 13.8714 14.5979 13.7334 14.7636 13.6373C14.9292 13.5412 15.1172 13.4903 15.3088 13.4896C15.5003 13.489 15.6886 13.5386 15.855 13.6336L20.9591 16.5503C21.1264 16.646 21.2654 16.7842 21.3621 16.9509C21.4588 17.1176 21.5098 17.3069 21.5098 17.4997C21.5098 17.6924 21.4588 17.8817 21.3621 18.0484C21.2654 18.2151 21.1264 18.3533 20.9591 18.449L15.855 21.3657Z" fill="#E9E9E9"/>
</svg>