<svg width="49" height="48" viewBox="0 0 49 48" fill="none" xmlns="http://www.w3.org/2000/svg">
<path d="M35.7999 18.6451L27.1432 11.9119C26.3835 11.3209 25.4484 11 24.4859 11C23.5234 11 22.5884 11.3209 21.8287 11.9119L13.1703 18.6451C12.6504 19.0501 12.2298 19.5684 11.9403 20.1605C11.6509 20.7526 11.5003 21.403 11.5 22.062V33.7493C11.5 34.6104 11.842 35.4361 12.4509 36.0449C13.0597 36.6538 13.8855 36.9958 14.7465 36.9958H34.2254C35.0864 36.9958 35.9121 36.6538 36.521 36.0449C37.1298 35.4361 37.4718 34.6104 37.4718 33.7493V22.062C37.4718 20.7261 36.855 19.4648 35.7999 18.6451Z" stroke="#E9E9E9" stroke-width="3.46617" stroke-linecap="round" stroke-linejoin="round"/>
<path d="M30.9302 28.855C27.3428 31.0188 21.5284 31.0188 17.9443 28.855" stroke="#E9E9E9" stroke-width="3.46617" stroke-linecap="round" stroke-linejoin="round"/>
</svg>
