<svg width="49" height="48" viewBox="0 0 49 48" fill="none" xmlns="http://www.w3.org/2000/svg">
<path d="M24.7147 25.6829C25.883 25.6829 27.0034 25.2188 27.8295 24.3927C28.6556 23.5666 29.1197 22.4462 29.1197 21.278C29.1197 20.1097 28.6556 18.9893 27.8295 18.1632C27.0034 17.3371 25.883 16.873 24.7147 16.873C23.5465 16.873 22.4261 17.3371 21.6 18.1632C20.7739 18.9893 20.3098 20.1097 20.3098 21.278C20.3098 22.4462 20.7739 23.5666 21.6 24.3927C22.4261 25.2188 23.5465 25.6829 24.7147 25.6829Z" stroke="#E9E9E9" stroke-width="2.93661" stroke-linecap="round" stroke-linejoin="round"/>
<path d="M24.7148 11C35.2866 11 37.9295 13.643 37.9295 24.2148C37.9295 34.7866 35.2866 37.4295 24.7148 37.4295C14.143 37.4295 11.5 34.7866 11.5 24.2148C11.5 13.643 14.143 11 24.7148 11Z" stroke="#E9E9E9" stroke-width="2.93661" stroke-linecap="round" stroke-linejoin="round"/>
<path d="M15.905 36.0345V35.9611C15.905 34.4034 16.5238 32.9096 17.6253 31.8081C18.7267 30.7067 20.2206 30.0879 21.7783 30.0879H27.6515C29.2092 30.0879 30.703 30.7067 31.8045 31.8081C32.9059 32.9096 33.5247 34.4034 33.5247 35.9611V36.0345" stroke="#E9E9E9" stroke-width="2.93661" stroke-linecap="round" stroke-linejoin="round"/>
</svg>
