<svg width="49" height="48" viewBox="0 0 49 48" fill="none" xmlns="http://www.w3.org/2000/svg">
<path d="M37.4962 36.9962L28.8308 28.3308M11.5 21.1096C11.5 22.4373 11.7615 23.7519 12.2696 24.9784C12.7776 26.205 13.5223 27.3195 14.461 28.2583C15.3998 29.197 16.5143 29.9417 17.7409 30.4497C18.9674 30.9578 20.282 31.2193 21.6096 31.2193C22.9373 31.2193 24.2519 30.9578 25.4784 30.4497C26.705 29.9417 27.8195 29.197 28.7583 28.2583C29.697 27.3195 30.4417 26.205 30.9497 24.9784C31.4578 23.7519 31.7193 22.4373 31.7193 21.1096C31.7193 19.782 31.4578 18.4674 30.9497 17.2409C30.4417 16.0143 29.697 14.8998 28.7583 13.961C27.8195 13.0223 26.705 12.2776 25.4784 11.7696C24.2519 11.2615 22.9373 11 21.6096 11C20.282 11 18.9674 11.2615 17.7409 11.7696C16.5143 12.2776 15.3998 13.0223 14.461 13.961C13.5223 14.8998 12.7776 16.0143 12.2696 17.2409C11.7615 18.4674 11.5 19.782 11.5 21.1096Z" stroke="#959595" stroke-width="3.15106" stroke-linecap="round" stroke-linejoin="round"/>
</svg>
