<svg width="52" height="52" viewBox="0 0 52 52" fill="none" xmlns="http://www.w3.org/2000/svg">
<path d="M26 0L29.7028 7.3847L35.9498 1.97913L36.5447 10.2187L44.3848 7.61522L41.7813 15.4553L50.0209 16.0502L44.6153 22.2972L52 26L44.6153 29.7028L50.0209 35.9498L41.7813 36.5447L44.3848 44.3848L36.5447 41.7813L35.9498 50.0209L29.7028 44.6153L26 52L22.2972 44.6153L16.0502 50.0209L15.4553 41.7813L7.61522 44.3848L10.2187 36.5447L1.97913 35.9498L7.3847 29.7028L0 26L7.3847 22.2972L1.97913 16.0502L10.2187 15.4553L7.61522 7.61522L15.4553 10.2187L16.0502 1.97913L22.2972 7.3847L26 0Z" fill="black"/>
</svg>
