<svg width="124" height="32" viewBox="0 0 124 32" fill="none" xmlns="http://www.w3.org/2000/svg">
<path d="M12.8445 14.766H10.2945L9.51251 19.288H13.0145C14.9865 19.288 16.5505 18.88 16.8565 17.044C17.2305 14.902 15.3945 14.766 12.8445 14.766ZM14.6125 6.232H11.7905L11.0765 10.312H14.4085C16.0065 10.312 17.2985 9.598 17.5365 8.17C17.8765 6.266 16.3125 6.232 14.6125 6.232ZM12.4025 25H0.468508L4.78651 0.519999H16.4825C21.9905 0.519999 26.1385 1.812 25.2885 6.674C24.8465 9.19 22.8745 11.026 21.1405 12.012C23.6905 12.692 24.7105 14.97 24.2345 17.622C23.2825 23.096 18.7605 25 12.4025 25ZM43.0394 25H35.7294V23.096C33.3834 24.966 31.2414 25.51 28.5894 25.51C25.2234 25.51 22.5374 23.844 23.1834 20.138C24.6114 12.046 36.6474 15.718 37.2254 12.386C37.4634 11.094 35.9334 10.924 35.1854 10.924C34.1994 10.924 32.8394 11.128 32.3974 12.658H25.5974C26.2434 8.884 29.3374 6.674 36.3754 6.674C44.8074 6.674 44.7734 9.802 44.0254 14.052L42.5634 22.382C42.3594 23.402 42.3254 23.912 43.1074 24.66L43.0394 25ZM32.4994 21.498C34.9814 21.498 36.1374 19.56 36.4094 17.112C33.8934 18.234 30.9354 17.69 30.5274 20.002C30.3574 20.886 31.1054 21.498 32.4994 21.498ZM42.7931 25L45.9211 7.184H52.3811L51.9051 9.972C53.8771 7.83 55.8151 6.674 58.5011 6.674C63.1931 6.674 64.9271 9.428 64.0431 14.324L62.1731 25H55.1011L56.7671 15.582C57.0731 13.814 56.8691 12.25 54.8631 12.25C52.6871 12.25 51.8711 13.644 51.4631 15.922L49.8651 25H42.7931ZM81.8849 25H75.5269L75.9349 22.62C73.8949 24.796 72.2289 25.51 69.9509 25.51C64.5789 25.51 62.5729 21.464 63.4569 16.432C64.5109 10.516 68.4889 6.674 72.7389 6.674C74.9829 6.674 76.4449 7.218 77.6349 8.986L79.1309 0.519999H86.2029L81.8849 25ZM72.6369 20.41C75.0849 20.41 76.2069 18.336 76.5809 16.262C76.9209 14.29 76.6489 12.148 74.3029 12.148C71.9569 12.148 70.9029 14.392 70.5629 16.364C70.2229 18.234 70.3249 20.41 72.6369 20.41ZM101.563 25H95.2046L95.6126 22.62C93.5726 24.796 91.9066 25.51 89.6286 25.51C84.2566 25.51 82.2506 21.464 83.1346 16.432C84.1886 10.516 88.1666 6.674 92.4166 6.674C94.6606 6.674 96.1226 7.218 97.3126 8.986L98.8086 0.519999H105.881L101.563 25ZM92.3146 20.41C94.7626 20.41 95.8846 18.336 96.2586 16.262C96.5986 14.29 96.3266 12.148 93.9806 12.148C91.6346 12.148 90.5806 14.392 90.2406 16.364C89.9006 18.234 90.0026 20.41 92.3146 20.41ZM110.632 7.184L111.822 18.166L116.854 7.184H123.654L115.018 23.81C112.196 29.318 111.142 31.052 104.852 31.052C103.56 31.052 102.268 30.916 101.724 30.916L102.608 25.986C103.118 25.986 103.594 26.02 104.07 26.02C106.28 26.02 106.892 25.374 106.518 23.402L103.526 7.184H110.632Z" fill="white"/>
</svg>
