<svg width="168" height="42" viewBox="0 0 168 42" fill="none" xmlns="http://www.w3.org/2000/svg">
<path d="M21 0L23.8269 6.78842L29.0364 1.59853L29.0502 8.95201L35.8492 6.15076L33.048 12.9498L40.4015 12.9636L35.2116 18.1731L42 21L35.2116 23.8269L40.4015 29.0364L33.048 29.0502L35.8492 35.8492L29.0502 33.048L29.0364 40.4015L23.8269 35.2116L21 42L18.1731 35.2116L12.9636 40.4015L12.9498 33.048L6.15076 35.8492L8.95201 29.0502L1.59853 29.0364L6.78842 23.8269L0 21L6.78842 18.1731L1.59853 12.9636L8.95201 12.9498L6.15076 6.15076L12.9498 8.95201L12.9636 1.59853L18.1731 6.78842L21 0Z" fill="white"/>
<path d="M56.8445 23.766H54.2945L53.5125 28.288H57.0145C58.9865 28.288 60.5505 27.88 60.8565 26.044C61.2305 23.902 59.3945 23.766 56.8445 23.766ZM58.6125 15.232H55.7905L55.0765 19.312H58.4085C60.0065 19.312 61.2985 18.598 61.5365 17.17C61.8765 15.266 60.3125 15.232 58.6125 15.232ZM56.4025 34H44.4685L48.7865 9.52H60.4825C65.9905 9.52 70.1385 10.812 69.2885 15.674C68.8465 18.19 66.8745 20.026 65.1405 21.012C67.6905 21.692 68.7105 23.97 68.2345 26.622C67.2825 32.096 62.7605 34 56.4025 34ZM87.0394 34H79.7294V32.096C77.3834 33.966 75.2414 34.51 72.5894 34.51C69.2234 34.51 66.5374 32.844 67.1834 29.138C68.6114 21.046 80.6474 24.718 81.2254 21.386C81.4634 20.094 79.9334 19.924 79.1854 19.924C78.1994 19.924 76.8394 20.128 76.3974 21.658H69.5974C70.2434 17.884 73.3374 15.674 80.3754 15.674C88.8074 15.674 88.7734 18.802 88.0254 23.052L86.5634 31.382C86.3594 32.402 86.3254 32.912 87.1074 33.66L87.0394 34ZM76.4994 30.498C78.9814 30.498 80.1374 28.56 80.4094 26.112C77.8934 27.234 74.9354 26.69 74.5274 29.002C74.3574 29.886 75.1054 30.498 76.4994 30.498ZM86.7931 34L89.9211 16.184H96.3811L95.9051 18.972C97.8771 16.83 99.8151 15.674 102.501 15.674C107.193 15.674 108.927 18.428 108.043 23.324L106.173 34H99.1011L100.767 24.582C101.073 22.814 100.869 21.25 98.8631 21.25C96.6871 21.25 95.8711 22.644 95.4631 24.922L93.8651 34H86.7931ZM125.885 34H119.527L119.935 31.62C117.895 33.796 116.229 34.51 113.951 34.51C108.579 34.51 106.573 30.464 107.457 25.432C108.511 19.516 112.489 15.674 116.739 15.674C118.983 15.674 120.445 16.218 121.635 17.986L123.131 9.52H130.203L125.885 34ZM116.637 29.41C119.085 29.41 120.207 27.336 120.581 25.262C120.921 23.29 120.649 21.148 118.303 21.148C115.957 21.148 114.903 23.392 114.563 25.364C114.223 27.234 114.325 29.41 116.637 29.41ZM145.563 34H139.205L139.613 31.62C137.573 33.796 135.907 34.51 133.629 34.51C128.257 34.51 126.251 30.464 127.135 25.432C128.189 19.516 132.167 15.674 136.417 15.674C138.661 15.674 140.123 16.218 141.313 17.986L142.809 9.52H149.881L145.563 34ZM136.315 29.41C138.763 29.41 139.885 27.336 140.259 25.262C140.599 23.29 140.327 21.148 137.981 21.148C135.635 21.148 134.581 23.392 134.241 25.364C133.901 27.234 134.003 29.41 136.315 29.41ZM154.632 16.184L155.822 27.166L160.854 16.184H167.654L159.018 32.81C156.196 38.318 155.142 40.052 148.852 40.052C147.56 40.052 146.268 39.916 145.724 39.916L146.608 34.986C147.118 34.986 147.594 35.02 148.07 35.02C150.28 35.02 150.892 34.374 150.518 32.402L147.526 16.184H154.632Z" fill="white"/>
</svg>
