<svg width="50" height="50" viewBox="0 0 50 50" fill="none" xmlns="http://www.w3.org/2000/svg">
<path d="M25 0L28.3653 8.08145L34.5671 1.90301L34.5836 10.6571L42.6777 7.32233L39.3428 15.4164L48.097 15.4329L41.9185 21.6347L50 25L41.9185 28.3653L48.097 34.5671L39.3428 34.5836L42.6777 42.6777L34.5836 39.3428L34.5671 48.097L28.3653 41.9185L25 50L21.6347 41.9185L15.4329 48.097L15.4164 39.3428L7.32233 42.6777L10.6571 34.5836L1.90301 34.5671L8.08145 28.3653L0 25L8.08145 21.6347L1.90301 15.4329L10.6571 15.4164L7.32233 7.32233L15.4164 10.6571L15.4329 1.90301L21.6347 8.08145L25 0Z" fill="#DF0001"/>
</svg>
