<svg width="34" height="34" viewBox="0 0 34 34" fill="none" xmlns="http://www.w3.org/2000/svg">
<path d="M17 0L19.2884 5.49539L23.5056 1.29405L23.5168 7.24686L29.0208 4.97919L26.7531 10.4832L32.706 10.4944L28.5046 14.7116L34 17L28.5046 19.2884L32.706 23.5056L26.7531 23.5168L29.0208 29.0208L23.5168 26.7531L23.5056 32.706L19.2884 28.5046L17 34L14.7116 28.5046L10.4944 32.706L10.4832 26.7531L4.97919 29.0208L7.24686 23.5168L1.29405 23.5056L5.49539 19.2884L0 17L5.49539 14.7116L1.29405 10.4944L7.24686 10.4832L4.97919 4.97919L10.4832 7.24686L10.4944 1.29405L14.7116 5.49539L17 0Z" fill="white"/>
</svg>
