<svg width="10" height="11" viewBox="0 0 10 11" fill="none" xmlns="http://www.w3.org/2000/svg">
<path d="M6.50001 5.95001C7.02656 6.05716 7.57361 5.99181 8.0601 5.76364C8.54659 5.53548 8.94662 5.15664 9.2009 4.68328C9.45518 4.20992 9.55018 3.66723 9.47182 3.13564C9.39346 2.60405 9.14591 2.11185 8.76586 1.732C8.38581 1.35214 7.89348 1.10484 7.36185 1.02676C6.83022 0.948669 6.28758 1.04395 5.81435 1.29847C5.34112 1.553 4.96249 1.95322 4.73457 2.43982C4.50666 2.92643 4.44159 3.47352 4.54901 4.00001M6.50001 5.95001L4.54901 4.00051L0.792513 8.2925C0.604872 8.47995 0.499378 8.73425 0.499237 8.99948C0.499168 9.1308 0.524965 9.26085 0.575157 9.38221C0.625348 9.50356 0.698951 9.61385 0.791763 9.70676C0.884575 9.79967 0.994778 9.87339 1.11608 9.92371C1.23738 9.97403 1.36741 9.99996 1.49873 10C1.76396 10.0002 2.01837 9.89495 2.20601 9.70751L6.50001 5.95001Z" stroke="white" stroke-linecap="round" stroke-linejoin="round"/>
</svg>
