<svg width="70" height="69" viewBox="0 0 70 69" fill="none" xmlns="http://www.w3.org/2000/svg">
<ellipse cx="35" cy="34.5" rx="35" ry="34.5" fill="#B42127"/>
<path d="M47 16.5C49.1217 16.5 51.1566 17.3429 52.6569 18.8431C54.1571 20.3434 55 22.3783 55 24.5V40.5C55 42.6217 54.1571 44.6566 52.6569 46.1569C51.1566 47.6571 49.1217 48.5 47 48.5H37.552L28.028 54.214C27.7412 54.3861 27.4158 54.4836 27.0815 54.4974C26.7473 54.5112 26.415 54.441 26.1149 54.2932C25.8149 54.1453 25.5567 53.9246 25.364 53.6511C25.1713 53.3777 25.0503 53.0603 25.012 52.728L25 52.5V48.5H23C20.9475 48.5 18.9735 47.7111 17.4864 46.2966C15.9992 44.882 15.1126 42.9499 15.01 40.9L15 40.5V24.5C15 22.3783 15.8429 20.3434 17.3431 18.8431C18.8434 17.3429 20.8783 16.5 23 16.5H47ZM35 36.5C34.4696 36.5 33.9609 36.7107 33.5858 37.0858C33.2107 37.4609 33 37.9696 33 38.5V38.52C33 39.0504 33.2107 39.5591 33.5858 39.9342C33.9609 40.3093 34.4696 40.52 35 40.52C35.5304 40.52 36.0391 40.3093 36.4142 39.9342C36.7893 39.5591 37 39.0504 37 38.52V38.5C37 37.9696 36.7893 37.4609 36.4142 37.0858C36.0391 36.7107 35.5304 36.5 35 36.5ZM35 24.5C34.4696 24.5 33.9609 24.7107 33.5858 25.0858C33.2107 25.4609 33 25.9696 33 26.5V32.5C33 33.0304 33.2107 33.5391 33.5858 33.9142C33.9609 34.2893 34.4696 34.5 35 34.5C35.5304 34.5 36.0391 34.2893 36.4142 33.9142C36.7893 33.5391 37 33.0304 37 32.5V26.5C37 25.9696 36.7893 25.4609 36.4142 25.0858C36.0391 24.7107 35.5304 24.5 35 24.5Z" fill="white"/>
</svg>
