<svg width="48" height="48" viewBox="0 0 48 48" fill="none" xmlns="http://www.w3.org/2000/svg">
<path d="M19.5 32V33.5C19.5 34.6935 19.9741 35.8381 20.818 36.682C21.6619 37.5259 22.8065 38 24 38C25.1935 38 26.3381 37.5259 27.182 36.682C28.0259 35.8381 28.5 34.6935 28.5 33.5V32M21 14C21 13.2044 21.3161 12.4413 21.8787 11.8787C22.4413 11.3161 23.2044 11 24 11C24.7956 11 25.5587 11.3161 26.1213 11.8787C26.6839 12.4413 27 13.2044 27 14C28.7226 14.8145 30.1911 16.0825 31.2481 17.6679C32.305 19.2534 32.9107 21.0966 33 23V27.5C33.1129 28.4326 33.4432 29.3256 33.9642 30.1072C34.4853 30.8888 35.1826 31.5371 36 32H12C12.8174 31.5371 13.5147 30.8888 14.0358 30.1072C14.5568 29.3256 14.8871 28.4326 15 27.5V23C15.0893 21.0966 15.695 19.2534 16.7519 17.6679C17.8089 16.0825 19.2774 14.8145 21 14Z" stroke="#E9E9E9" stroke-width="2.5" stroke-linecap="round" stroke-linejoin="round"/>
</svg>
