<svg width="48" height="48" viewBox="0 0 48 48" fill="none" xmlns="http://www.w3.org/2000/svg">
<path d="M22.3597 14.6828C22.9041 12.4391 26.0959 12.4391 26.6403 14.6828C26.722 15.0199 26.8821 15.3329 27.1076 15.5964C27.3331 15.8599 27.6176 16.0665 27.9381 16.1992C28.2585 16.332 28.6057 16.3872 28.9515 16.3604C29.2973 16.3336 29.6319 16.2255 29.928 16.0449C31.8996 14.8438 34.1574 17.1004 32.9563 19.0733C32.776 19.3693 32.6681 19.7037 32.6414 20.0492C32.6146 20.3948 32.6698 20.7418 32.8024 21.062C32.935 21.3822 33.1413 21.6666 33.4045 21.8921C33.6677 22.1176 33.9804 22.2778 34.3172 22.3597C36.5609 22.9041 36.5609 26.0959 34.3172 26.6403C33.9801 26.722 33.6671 26.8821 33.4036 27.1076C33.1401 27.3331 32.9335 27.6176 32.8008 27.9381C32.668 28.2585 32.6128 28.6057 32.6396 28.9515C32.6664 29.2973 32.7745 29.6319 32.9551 29.928C34.1562 31.8996 31.8996 34.1574 29.9267 32.9563C29.6307 32.776 29.2963 32.6681 28.9508 32.6414C28.6052 32.6146 28.2582 32.6698 27.938 32.8024C27.6178 32.935 27.3334 33.1413 27.1079 33.4045C26.8824 33.6677 26.7222 33.9804 26.6403 34.3172C26.0959 36.5609 22.9041 36.5609 22.3597 34.3172C22.278 33.9801 22.1179 33.6671 21.8924 33.4036C21.6669 33.1401 21.3824 32.9335 21.0619 32.8008C20.7415 32.668 20.3943 32.6128 20.0485 32.6396C19.7027 32.6664 19.3681 32.7745 19.072 32.9551C17.1004 34.1562 14.8426 31.8996 16.0437 29.9267C16.224 29.6307 16.3319 29.2963 16.3586 28.9508C16.3854 28.6052 16.3302 28.2582 16.1976 27.938C16.065 27.6178 15.8587 27.3334 15.5955 27.1079C15.3323 26.8824 15.0196 26.7222 14.6828 26.6403C12.4391 26.0959 12.4391 22.9041 14.6828 22.3597C15.0199 22.278 15.3329 22.1179 15.5964 21.8924C15.8599 21.6669 16.0665 21.3824 16.1992 21.0619C16.332 20.7415 16.3872 20.3943 16.3604 20.0485C16.3336 19.7027 16.2255 19.3681 16.0449 19.072C14.8438 17.1004 17.1004 14.8426 19.0733 16.0437C20.3511 16.8206 22.0071 16.1331 22.3597 14.6828Z" stroke="#E9E9E9" stroke-width="2.1" stroke-linecap="round" stroke-linejoin="round"/>
<path d="M20.6667 24.5C20.6667 25.5167 21.0706 26.4917 21.7894 27.2106C22.5083 27.9295 23.4834 28.3333 24.5 28.3333C25.5167 28.3333 26.4917 27.9295 27.2106 27.2106C27.9295 26.4917 28.3334 25.5167 28.3334 24.5C28.3334 23.4833 27.9295 22.5083 27.2106 21.7894C26.4917 21.0705 25.5167 20.6667 24.5 20.6667C23.4834 20.6667 22.5083 21.0705 21.7894 21.7894C21.0706 22.5083 20.6667 23.4833 20.6667 24.5Z" stroke="#E9E9E9" stroke-width="2.1" stroke-linecap="round" stroke-linejoin="round"/>
</svg>
