<svg width="32" height="32" viewBox="0 0 32 32" fill="none" xmlns="http://www.w3.org/2000/svg">
<path d="M10.6667 12H9.33342C8.62617 12 7.94789 12.281 7.4478 12.781C6.9477 13.2811 6.66675 13.9594 6.66675 14.6667V25.3333C6.66675 26.0406 6.9477 26.7189 7.4478 27.219C7.94789 27.719 8.62617 28 9.33342 28H22.6668C23.374 28 24.0523 27.719 24.5524 27.219C25.0525 26.7189 25.3334 26.0406 25.3334 25.3333V14.6667C25.3334 13.9594 25.0525 13.2811 24.5524 12.781C24.0523 12.281 23.374 12 22.6668 12H21.3334M16.0001 18.6667V4M16.0001 4L12.0001 8M16.0001 4L20.0001 8" stroke="#CACACA" stroke-width="1.9" stroke-linecap="round" stroke-linejoin="round"/>
</svg>
