<svg width="48" height="48" viewBox="0 0 48 48" fill="none" xmlns="http://www.w3.org/2000/svg">
<path d="M22.5344 30.1852H11C11.7857 29.7403 12.4559 29.1171 12.9568 28.3658C13.4576 27.6146 13.7751 26.7562 13.8836 25.8598V21.5344C13.9695 19.7049 14.5516 17.9332 15.5676 16.4092C16.5835 14.8853 17.995 13.6665 19.6508 12.8836C19.6508 12.1188 19.9546 11.3854 20.4954 10.8446C21.0362 10.3038 21.7696 10 22.5344 10C23.2992 10 24.0326 10.3038 24.5734 10.8446C25.1142 11.3854 25.418 12.1188 25.418 12.8836C27.0738 13.6665 28.4853 14.8853 29.5013 16.4092C30.5172 17.9332 31.0993 19.7049 31.1852 21.5344V22.2553M32.6285 35.9524C31.8637 35.9524 31.1302 35.6486 30.5894 35.1078C30.0487 34.5671 29.7449 33.8336 29.7449 33.0688C29.7449 32.304 30.0487 31.5706 30.5894 31.0298C31.1302 30.489 31.8637 30.1852 32.6285 30.1852M32.6285 35.9524C33.3932 35.9524 34.1267 35.6486 34.6675 35.1078C35.2083 34.5671 35.5121 33.8336 35.5121 33.0688C35.5121 32.304 35.2083 31.5706 34.6675 31.0298C34.1267 30.489 33.3932 30.1852 32.6285 30.1852M32.6285 35.9524V38.1151M32.6285 30.1852V28.0225M36.9986 30.5457L35.1257 31.627M30.1327 34.5106L28.2584 35.592M28.2584 30.5457L30.1327 31.627M35.1257 34.5106L37 35.592M18.209 30.1852V31.627C18.209 32.7742 18.6647 33.8744 19.4759 34.6855C20.2871 35.4967 21.3872 35.9524 22.5344 35.9524" stroke="#CACACA" stroke-width="2.2" stroke-linecap="round" stroke-linejoin="round"/>
</svg>
