<svg width="48" height="48" viewBox="0 0 48 48" fill="none" xmlns="http://www.w3.org/2000/svg">
<path d="M20.4986 20.1702H20.5155M27.2787 20.1702H27.2957M12.0234 21.8653C12.0234 18.7184 13.2735 15.7004 15.4987 13.4753C17.7238 11.2501 20.7418 10 23.8887 10C27.0355 10 30.0535 11.2501 32.2787 13.4753C34.5038 15.7004 35.7539 18.7184 35.7539 21.8653V33.7305C35.8341 34.3702 35.7072 35.0188 35.3919 35.5811C35.0767 36.1434 34.5895 36.59 34.002 36.8554C33.4144 37.1207 32.7573 37.1909 32.127 37.0556C31.4967 36.9203 30.9262 36.5867 30.4993 36.1036C30.2377 35.7689 29.9033 35.4982 29.5215 35.312C29.1397 35.1259 28.7205 35.0291 28.2958 35.0291C27.871 35.0291 27.4518 35.1259 27.07 35.312C26.6882 35.4982 26.3538 35.7689 26.0922 36.1036C25.8306 36.4382 25.4962 36.7089 25.1144 36.8951C24.7326 37.0813 24.3134 37.178 23.8887 37.178C23.4639 37.178 23.0447 37.0813 22.6629 36.8951C22.2811 36.7089 21.9467 36.4382 21.6851 36.1036C21.4235 35.7689 21.0891 35.4982 20.7073 35.312C20.3255 35.1259 19.9063 35.0291 19.4816 35.0291C19.0568 35.0291 18.6376 35.1259 18.2558 35.312C17.874 35.4982 17.5396 35.7689 17.278 36.1036C16.8511 36.5867 16.2807 36.9203 15.6503 37.0556C15.02 37.1909 14.3629 37.1207 13.7753 36.8554C13.1878 36.59 12.7007 36.1434 12.3854 35.5811C12.0701 35.0188 11.9433 34.3702 12.0234 33.7305V21.8653Z" stroke="#CACACA" stroke-width="2.4827" stroke-linecap="round" stroke-linejoin="round"/>
<path d="M20.4985 26.9512C21.4933 27.6439 22.6764 28.0152 23.8886 28.0152C25.1008 28.0152 26.2839 27.6439 27.2787 26.9512" stroke="#CACACA" stroke-width="2.4827" stroke-linecap="round" stroke-linejoin="round"/>
</svg>
