<svg width="48" height="48" viewBox="0 0 48 48" fill="none" xmlns="http://www.w3.org/2000/svg">
<path d="M19 16H28M19 22H28M19 28H25M13 13C13 12.2044 13.3161 11.4413 13.8787 10.8787C14.4413 10.3161 15.2044 10 16 10H31C31.7956 10 32.5587 10.3161 33.1213 10.8787C33.6839 11.4413 34 12.2044 34 13V34C34 34.7956 33.6839 35.5587 33.1213 36.1213C32.5587 36.6839 31.7956 37 31 37H16C15.2044 37 14.4413 36.6839 13.8787 36.1213C13.3161 35.5587 13 34.7956 13 34V13Z" stroke="#CACACA" stroke-width="1.98" stroke-linecap="round" stroke-linejoin="round"/>
</svg>
