<svg width="24" height="25" viewBox="0 0 24 25" fill="none" xmlns="http://www.w3.org/2000/svg">
<path d="M17 3.83989C18.5202 4.71758 19.7826 5.97997 20.6603 7.50017C21.538 9.02038 22 10.7448 22 12.5002C22 14.2556 21.5379 15.98 20.6602 17.5002C19.7825 19.0204 18.5201 20.2828 16.9999 21.1605C15.4797 22.0381 13.7552 22.5002 11.9998 22.5001C10.2445 22.5001 8.52002 22.038 6.99984 21.1603C5.47965 20.2826 4.21729 19.0202 3.33963 17.5C2.46198 15.9797 1.99996 14.2553 2 12.4999L2.005 12.1759C2.061 10.4489 2.56355 8.76585 3.46364 7.29089C4.36373 5.81592 5.63065 4.59934 7.14089 3.75977C8.65113 2.92021 10.3531 2.48629 12.081 2.50033C13.8089 2.51437 15.5036 2.97589 17 3.83989ZM17 9.49989H7C6.73478 9.49989 6.48043 9.60525 6.29289 9.79279C6.10536 9.98032 6 10.2347 6 10.4999V14.4999C6 14.7651 6.10536 15.0195 6.29289 15.207C6.48043 15.3945 6.73478 15.4999 7 15.4999H17C17.2652 15.4999 17.5196 15.3945 17.7071 15.207C17.8946 15.0195 18 14.7651 18 14.4999V10.4999C18 10.2347 17.8946 9.98032 17.7071 9.79279C17.5196 9.60525 17.2652 9.49989 17 9.49989Z" fill="#C7242D"/>
</svg>
