<svg width="48" height="48" viewBox="0 0 48 48" fill="none" xmlns="http://www.w3.org/2000/svg">
<path d="M26.7144 14V18.3175C26.7144 18.6037 26.8281 18.8783 27.0305 19.0807C27.2329 19.2831 27.5075 19.3968 27.7937 19.3968H32.1112" stroke="#CACACA" stroke-width="1.58961" stroke-linecap="round" stroke-linejoin="round"/>
<path d="M29.9524 33.4286H19.1587C18.5862 33.4286 18.0371 33.2011 17.6323 32.7963C17.2274 32.3915 17 31.8424 17 31.2698V16.1587C17 15.5862 17.2274 15.0371 17.6323 14.6323C18.0371 14.2274 18.5862 14 19.1587 14H26.7143L32.1111 19.3968V31.2698C32.1111 31.8424 31.8837 32.3915 31.4788 32.7963C31.074 33.2011 30.5249 33.4286 29.9524 33.4286Z" stroke="#CACACA" stroke-width="1.58961" stroke-linecap="round" stroke-linejoin="round"/>
<path d="M24.5557 28.0316C24.5557 28.3179 24.442 28.5924 24.2396 28.7948C24.0371 28.9972 23.7626 29.111 23.4763 29.111C23.1901 29.111 22.9155 28.9972 22.7131 28.7948C22.5107 28.5924 22.397 28.3179 22.397 28.0316C22.397 27.7453 22.5107 27.4708 22.7131 27.2684C22.9155 27.0659 23.1901 26.9522 23.4763 26.9522C23.7626 26.9522 24.0371 27.0659 24.2396 27.2684C24.442 27.4708 24.5557 27.7453 24.5557 28.0316ZM24.5557 28.0316V22.6348L26.7144 23.7141" stroke="#CACACA" stroke-width="1.58961" stroke-linecap="round" stroke-linejoin="round"/>
</svg>
