<svg width="24" height="25" viewBox="0 0 24 25" fill="none" xmlns="http://www.w3.org/2000/svg">
<path d="M4 5.49966C4.00002 5.36668 4.02656 5.23503 4.07807 5.11244C4.12959 4.98984 4.20503 4.87874 4.3 4.78566C5.38984 3.71729 6.84585 3.10439 8.37166 3.07169C9.89746 3.03899 11.3784 3.58896 12.513 4.60966L12.864 4.93766C13.5934 5.57675 14.5302 5.92908 15.5 5.92908C16.4698 5.92908 17.4066 5.57675 18.136 4.93766L18.385 4.71066C18.995 4.22766 19.912 4.61366 19.995 5.38666L20 5.49966V14.4997C20 14.6326 19.9734 14.7643 19.9219 14.8869C19.8704 15.0095 19.795 15.1206 19.7 15.2137C18.6102 16.282 17.1542 16.8949 15.6283 16.9276C14.1025 16.9603 12.6216 16.4103 11.487 15.3897L11.136 15.0617C10.4295 14.4427 9.52777 14.092 8.58872 14.0712C7.64967 14.0503 6.73323 14.3606 6 14.9477V21.4997C5.99972 21.7545 5.90212 21.9997 5.72715 22.185C5.55218 22.3704 5.31305 22.4819 5.05861 22.4968C4.80416 22.5118 4.55362 22.429 4.35817 22.2654C4.16271 22.1018 4.0371 21.8698 4.007 21.6167L4 21.4997V5.49966Z" fill="#C7242D"/>
</svg>
