<svg width="180" height="140" viewBox="0 0 180 140" fill="none" xmlns="http://www.w3.org/2000/svg">
<rect x="12.4561" y="31.584" width="167" height="108" rx="14" fill="#E9E9E9"/>
<path d="M31.9881 76.712C31.9881 79.414 30.7421 81.234 28.7821 81.234C26.8501 81.234 25.5761 79.442 25.5761 76.712C25.5761 73.968 26.8501 72.19 28.7821 72.19C30.7421 72.19 31.9881 73.968 31.9881 76.712ZM35.9221 83.544H34.8721V71.224H35.9221V83.544ZM30.9521 76.698C30.9521 74.766 30.1961 73.128 28.7961 73.128C27.4101 73.128 26.6261 74.766 26.6261 76.698C26.6261 78.658 27.4101 80.296 28.7961 80.296C30.1961 80.296 30.9521 78.658 30.9521 76.698ZM48.521 71.812C48.451 72.61 48.325 73.394 48.227 73.996C47.989 75.34 47.765 76.152 47.751 76.194H46.701C46.729 76.124 47.219 73.814 47.331 72.68H39.099V71.812H48.521ZM49.935 78H37.615V77.132H42.445V74.458H43.523V77.132H49.935V78ZM49.081 82.816L48.409 83.572C47.807 83.446 46.785 83.124 45.707 82.452C44.755 81.864 44.027 80.954 43.775 80.548C43.579 80.954 42.795 81.864 41.857 82.452C40.779 83.124 39.757 83.446 39.155 83.572L38.483 82.816C39.127 82.676 40.429 82.298 41.493 81.57C42.431 80.912 43.159 80.044 43.159 79.218V78.798H44.405V79.218C44.405 80.044 45.119 80.912 46.071 81.57C47.121 82.298 48.423 82.676 49.081 82.816ZM61.3019 73.366C61.3019 73.996 60.8959 74.514 60.0979 74.948C59.2999 75.368 58.1519 75.578 56.6539 75.578C53.6719 75.578 51.9919 74.612 51.9919 73.366C51.9919 72.12 53.6579 71.154 56.6539 71.154C59.6779 71.154 61.3019 72.176 61.3019 73.366ZM62.8139 77.496H50.4939V76.656H62.8139V77.496ZM61.4419 83.404H52.1739V80.548H60.0139V79.4H52.1739V78.574H61.1479V81.36H53.2939V82.564H61.4419V83.404ZM60.1679 73.366C60.1679 72.54 58.7259 71.952 56.6539 71.952C55.5899 71.952 54.7359 72.092 54.0919 72.358C53.4619 72.624 53.1399 72.96 53.1399 73.366C53.1399 74.178 54.5819 74.794 56.6679 74.794C58.7399 74.794 60.1679 74.178 60.1679 73.366ZM80.5873 77.104H68.2673V76.278H77.3253C77.4233 75.956 77.5913 75.298 77.7033 74.57C76.9333 74.696 75.7573 74.766 74.6513 74.808C73.1393 74.906 69.8913 74.864 69.7513 74.864V74.052C69.9053 74.052 73.4473 74.052 74.6933 74.01C75.8553 73.954 77.1293 73.856 77.8573 73.73L78.0113 72.61H69.9473V71.742H79.1733C79.1173 72.596 79.0053 73.422 78.8513 74.192C78.6833 75.144 78.5153 75.9 78.4173 76.278H80.5873V77.104ZM79.2293 83.404H69.9333V80.45H77.8013V79.204H69.9333V78.364H78.9073V81.29H71.0673V82.564H79.2293V83.404ZM92.1922 83.544H91.1422V80.52H83.3442V79.652H92.1922V83.544ZM90.2322 78.028C89.4062 78.14 87.6562 78.28 86.2562 78.308C84.8422 78.35 82.2382 78.35 82.1542 78.35V74.696H87.3202V72.764H82.1542V71.896H88.3562V75.55H83.1902V77.482L86.5362 77.44C87.7822 77.412 89.4202 77.286 90.2322 77.174V78.028ZM92.2202 78.812H91.1842V71.224H92.2202V78.812ZM100.283 72.834H96.2791V71.952H100.283V72.834ZM102.117 75.032H94.4311V74.15H102.117V75.032ZM104.693 71.224V76.39H106.681V77.3H104.693V83.544H103.643V71.224H104.693ZM101.529 78.938C101.529 80.422 100.199 81.752 98.2951 81.752C96.3771 81.752 95.0331 80.422 95.0331 78.938C95.0331 77.426 96.3631 76.138 98.2951 76.138C100.199 76.138 101.529 77.412 101.529 78.938ZM100.451 78.938C100.451 77.902 99.6531 77.006 98.2951 77.006C96.9371 77.006 96.1251 77.902 96.1251 78.938C96.1251 79.974 96.9371 80.87 98.2951 80.87C99.6531 80.87 100.451 79.974 100.451 78.938ZM118.132 83.544H117.082V78.672H113.918C113.456 80.254 112.406 81.234 110.964 81.234C109.032 81.234 107.758 79.442 107.758 76.712C107.758 73.968 109.032 72.19 110.964 72.19C112.322 72.19 113.33 73.044 113.834 74.486H117.082V71.224H118.132V83.544ZM117.082 77.776V75.368H114.058C114.156 75.774 114.17 76.222 114.17 76.712C114.17 77.09 114.156 77.44 114.1 77.776H117.082ZM113.12 76.698C113.12 74.766 112.378 73.128 110.978 73.128C109.578 73.128 108.808 74.766 108.808 76.698C108.808 78.658 109.578 80.296 110.978 80.296C112.378 80.296 113.12 78.658 113.12 76.698ZM136.997 78.14H124.677V77.272H130.291V75.62H126.357V71.7H135.331V72.568H127.393V74.752H135.471V75.62H131.369V77.272H136.997V78.14ZM135.597 81.458C135.597 82.802 133.903 83.796 130.837 83.796C129.311 83.796 128.135 83.572 127.309 83.124C126.483 82.69 126.077 82.13 126.077 81.458C126.077 80.1 127.799 79.12 130.837 79.12C133.903 79.12 135.597 80.1 135.597 81.458ZM127.225 81.444C127.225 82.354 128.695 82.942 130.837 82.942C132.951 82.942 134.435 82.354 134.435 81.458C134.435 80.52 132.951 79.946 130.837 79.946C128.695 79.946 127.225 80.506 127.225 81.444ZM148.784 78.7H147.748V76.362H144.332C143.758 77.132 142.778 77.636 141.56 77.636C139.6 77.636 138.186 76.278 138.186 74.64C138.186 73.002 139.6 71.644 141.56 71.644C142.722 71.644 143.702 72.12 144.276 72.848H147.748V71.224H148.784V78.7ZM148.966 81.374C148.966 82.788 147.384 83.768 144.374 83.768C141.392 83.768 139.782 82.76 139.782 81.346C139.782 79.932 141.392 78.91 144.374 78.91C147.384 78.91 148.966 79.96 148.966 81.374ZM147.748 75.494V73.702H144.766C144.864 73.996 144.934 74.304 144.934 74.64C144.934 74.934 144.878 75.214 144.78 75.494H147.748ZM143.828 74.64C143.828 73.478 143.03 72.568 141.56 72.568C140.104 72.568 139.292 73.478 139.292 74.64C139.292 75.214 139.488 75.704 139.88 76.11C140.272 76.516 140.832 76.726 141.56 76.726C142.302 76.726 142.862 76.516 143.24 76.11C143.632 75.704 143.828 75.214 143.828 74.64ZM140.874 81.346C140.874 82.312 142.302 82.914 144.374 82.914C146.432 82.914 147.874 82.354 147.874 81.374C147.874 80.366 146.432 79.778 144.374 79.778C142.302 79.778 140.874 80.338 140.874 81.346ZM158.835 77.146L158.149 77.916C157.645 77.72 156.609 77.132 155.853 76.376C155.279 75.774 154.859 75.242 154.593 74.64C154.411 75.27 153.879 76.012 153.263 76.628C152.577 77.342 151.751 77.902 151.149 78.224L150.407 77.552C151.079 77.216 152.213 76.474 152.885 75.662C153.557 74.836 154.047 73.828 154.047 72.596V71.602H155.125V72.596C155.125 73.842 155.615 74.738 156.231 75.41C157.071 76.32 158.107 76.908 158.835 77.146ZM163.007 75.284H161.159V78.7H160.123V71.224H161.159V74.402H163.007V75.284ZM161.481 81.36C161.481 82.774 160.011 83.782 157.057 83.782C154.089 83.782 152.605 82.774 152.605 81.36C152.605 79.96 154.089 78.924 157.057 78.924C160.011 78.924 161.481 79.946 161.481 81.36ZM160.361 81.374C160.361 80.38 159.073 79.764 157.071 79.764C155.041 79.764 153.739 80.366 153.739 81.374C153.739 82.34 155.041 82.956 157.071 82.956C159.073 82.956 160.361 82.34 160.361 81.374ZM163.818 81.584H165.4V82.55C165.4 82.872 165.316 83.222 165.05 83.558C164.812 83.88 164.476 84.006 164.21 84.118L163.846 83.67C164.336 83.614 164.686 83.222 164.686 82.928H163.818V81.584ZM37.0561 96.934H24.7361V96.066H30.3641V93.112H31.4281V96.066H37.0561V96.934ZM31.4561 87.778C31.4561 88.954 32.1421 90.228 33.1361 91.124C34.2141 92.09 35.7401 92.832 36.3141 93L35.6001 93.7C35.1101 93.56 33.7661 92.916 32.7161 92.034C31.8201 91.222 31.0641 90.158 30.8961 89.598C30.7281 90.158 29.9861 91.236 29.0761 92.034C28.0261 92.916 26.6821 93.56 26.1921 93.7L25.4781 93C26.0521 92.846 27.6061 92.09 28.6561 91.124C29.6501 90.228 30.3361 88.954 30.3361 87.778V86.77H31.4561V87.778ZM46.631 95.66C45.875 95.772 43.985 95.94 42.557 95.996L38.749 96.038V91.278H43.733V88.352H38.749V87.484H44.769V92.146H39.785V95.17L42.725 95.142C43.971 95.086 45.931 94.918 46.631 94.806V95.66ZM48.633 98.544H47.583V86.224H48.633V98.544ZM62.8139 92.958H50.4939V92.118H62.8139V92.958ZM61.0639 93.966V96.584H53.2659V97.578H61.4139V98.404H52.1739V95.786H59.9719V94.792H52.1739V93.966H61.0639ZM61.3439 91.082H52.1739V88.464H59.9019V87.47H52.1739V86.644H61.0079V89.262H53.2799V90.256H61.3439V91.082ZM74.8333 87.05H71.0113V86.252H74.8333V87.05ZM76.6253 88.646H69.1493V87.848H76.6253V88.646ZM80.8813 91.11H79.0753V94.806H78.0253V86.224H79.0753V90.214H80.8813V91.11ZM77.5213 93.938C76.6113 94.05 75.2253 94.176 73.8253 94.218C72.1453 94.26 68.6173 94.246 68.4633 94.246V93.406H72.3973V92.426C70.8153 92.328 69.7233 91.726 69.7233 90.872C69.7233 89.92 71.0673 89.206 72.9433 89.206C74.8473 89.206 76.1773 89.906 76.1773 90.886C76.1773 91.726 75.1273 92.314 73.5173 92.426V93.392C74.6653 93.392 76.4433 93.196 77.5213 93.084V93.938ZM79.0753 98.544H78.0113V96.192H70.2133V95.38H79.0753V98.544ZM75.0713 90.872C75.0713 90.326 74.2313 90.004 72.9433 90.004C71.6973 90.004 70.8153 90.326 70.8153 90.872C70.8153 91.39 71.6973 91.656 72.9433 91.656C74.2313 91.656 75.0713 91.39 75.0713 90.872ZM85.1782 86.658C87.1382 86.658 88.5522 88.058 88.5522 89.78C88.5522 91.502 87.1382 92.902 85.1782 92.902C83.2182 92.902 81.8042 91.502 81.8042 89.78C81.8042 88.058 83.2182 86.658 85.1782 86.658ZM92.4302 95.17H91.3942V86.224H92.4302V95.17ZM92.7522 98.264H83.8202V94.428H84.8702V97.41H92.7522V98.264ZM85.1782 87.582C83.7362 87.582 82.9102 88.548 82.9102 89.78C82.9102 90.382 83.1062 90.9 83.4982 91.334C83.9042 91.754 84.4642 91.964 85.1782 91.964C85.9202 91.964 86.4802 91.754 86.8582 91.334C87.2502 90.9 87.4462 90.382 87.4462 89.78C87.4462 89.178 87.2502 88.66 86.8582 88.226C86.4802 87.792 85.9202 87.582 85.1782 87.582ZM99.2191 88.156H95.8171V87.288H99.2191V88.156ZM100.703 90.27H94.3331V89.402H100.703V90.27ZM105.491 98.544H104.469V92.37H102.719V97.984H101.697V86.504H102.719V91.418H104.469V86.224H105.491V98.544ZM100.311 93.882C100.311 95.422 99.1211 96.486 97.5251 96.486C95.9711 96.486 94.7391 95.422 94.7391 93.882C94.7391 92.37 95.9711 91.306 97.5251 91.306C99.1211 91.306 100.311 92.37 100.311 93.882ZM99.2891 93.896C99.2891 92.874 98.6031 92.146 97.5251 92.146C96.4611 92.146 95.7611 92.874 95.7611 93.896C95.7611 94.918 96.4611 95.618 97.5251 95.618C98.6031 95.618 99.2891 94.918 99.2891 93.896ZM119.224 96.906H106.904V96.038H112.504V93.406H108.612V87.022H109.662V89.234H116.466V87.022H117.516V93.406H113.568V96.038H119.224V96.906ZM116.466 92.538V90.088H109.662V92.538H116.466ZM128.785 97.984H127.763V91.488H125.453V90.592H127.763V86.504H128.785V97.984ZM131.361 98.544H130.339V86.224H131.361V98.544ZM126.783 95.45L126.041 96.08C125.579 95.73 125.019 95.212 124.473 94.484C123.899 93.714 123.507 92.748 123.353 92.258C123.241 92.72 122.961 93.406 122.415 94.288C121.897 95.142 121.197 95.842 120.539 96.402L119.685 95.814C120.357 95.296 121.337 94.372 121.953 93.154C122.611 91.852 122.821 90.634 122.821 89.514V87.204H123.899V89.514C123.899 90.662 124.165 92.258 124.977 93.518C125.579 94.428 126.321 95.114 126.783 95.45ZM143.526 89.99C143.526 91.768 141.678 93.126 138.822 93.126C135.98 93.126 134.118 91.768 134.118 89.99C134.118 88.212 135.98 86.854 138.822 86.854C141.678 86.854 143.526 88.212 143.526 89.99ZM144.982 97.032H132.662V96.164H136.05V93.406H137.128V96.164H140.558V93.406H141.636V96.164H144.982V97.032ZM142.448 89.99C142.448 88.59 140.754 87.75 138.822 87.75C136.89 87.75 135.196 88.59 135.196 89.99C135.196 91.348 136.89 92.244 138.822 92.244C140.754 92.244 142.448 91.348 142.448 89.99Z" fill="#121212"/>
<path d="M16.0204 26.6225C16.2725 27.1139 16.8752 27.3079 17.3666 27.0558C17.858 26.8037 18.052 26.201 17.7999 25.7096L16.0204 26.6225ZM4.30628 0.0481605C3.78055 -0.121055 3.21719 0.167952 3.04798 0.693674L0.290452 9.26082C0.121236 9.78655 0.410243 10.3499 0.935965 10.5191C1.46169 10.6883 2.02505 10.3993 2.19426 9.87361L4.6454 2.25836L12.2606 4.7095C12.7864 4.87871 13.3497 4.58971 13.5189 4.06399C13.6882 3.53826 13.3991 2.9749 12.8734 2.80569L4.30628 0.0481605ZM16.9102 26.166L17.7999 25.7096L4.88964 0.54362L3.99988 1.00007L3.11013 1.45651L16.0204 26.6225L16.9102 26.166Z" fill="white"/>
</svg>
