<svg width="32" height="32" viewBox="0 0 32 32" fill="none" xmlns="http://www.w3.org/2000/svg">
<path d="M18.9714 11.9881C19.7179 12.548 20.2924 13.3061 20.6296 14.1762C20.9668 15.0463 21.0531 15.9936 20.8788 16.9103M19.5051 19.5061C19.3384 19.6728 19.16 19.8275 18.9714 19.969M21.6649 8.99523C23.2661 10.2892 24.3739 12.094 24.8029 14.1075C25.2319 16.1209 24.9559 18.2206 24.0213 20.0548M22.3493 22.3483C22.1318 22.5644 21.9034 22.7691 21.6649 22.9618M13.0545 9.0491L13.4845 8.49642C13.5717 8.32706 13.7166 8.19447 13.893 8.12261C14.0694 8.05075 14.2657 8.04436 14.4464 8.1046C14.6272 8.16484 14.7804 8.28773 14.8784 8.45107C14.9764 8.61441 15.0128 8.80742 14.9809 8.99523V10.9905M14.9809 14.9809V22.9618C15.0128 23.1496 14.9764 23.3427 14.8784 23.506C14.7804 23.6693 14.6272 23.7922 14.4464 23.8525C14.2657 23.9127 14.0694 23.9063 13.893 23.8345C13.7166 23.7626 13.5717 23.63 13.4845 23.4606L9.99284 18.9714H7.99761C7.73303 18.9714 7.47928 18.8663 7.29219 18.6792C7.10511 18.4921 7 18.2383 7 17.9738V13.9833C7 13.7187 7.10511 13.465 7.29219 13.2779C7.47928 13.0908 7.73303 12.9857 7.99761 12.9857H9.99284L11.2838 11.3257M7 7L24.9571 24.9571" stroke="#CACACA" stroke-width="1.7" stroke-linecap="round" stroke-linejoin="round"/>
</svg>
