<svg width="48" height="48" viewBox="0 0 48 48" fill="none" xmlns="http://www.w3.org/2000/svg">
<path d="M13 19.25C13 18.1228 13.4478 17.0418 14.2448 16.2448C15.0418 15.4478 16.1228 15 17.25 15H30C31.1272 15 32.2082 15.4478 33.0052 16.2448C33.8022 17.0418 34.25 18.1228 34.25 19.25V27.75C34.25 28.8772 33.8022 29.9582 33.0052 30.7552C32.2082 31.5522 31.1272 32 30 32H17.25C16.1228 32 15.0418 31.5522 14.2448 30.7552C13.4478 29.9582 13 28.8772 13 27.75V19.25Z" stroke="#CACACA" stroke-width="1.78947" stroke-linecap="round" stroke-linejoin="round"/>
<path d="M21.5 20.3125L26.8125 23.5L21.5 26.6875V20.3125Z" stroke="#CACACA" stroke-width="1.78947" stroke-linecap="round" stroke-linejoin="round"/>
</svg>
