<svg xmlns="http://www.w3.org/2000/svg" width="48" height="48" viewBox="0 0 48 48" fill="none">
  <path d="M46.545 8.95526L39.045 1.45526C38.8317 1.25654 38.5497 1.14835 38.2582 1.1535C37.9668 1.15864 37.6887 1.27671 37.4826 1.48283C37.2764 1.68894 37.1584 1.96702 37.1532 2.25847C37.1481 2.54993 37.2563 2.832 37.455 3.04526L38.16 3.75026L26.4187 15.4915C22.2262 13.204 17.4919 13.3128 14.6569 16.1553C13.9229 16.8849 13.3483 17.759 12.9694 18.7221C12.8212 19.0623 12.5777 19.3522 12.2682 19.5568C11.9587 19.7615 11.5966 19.8721 11.2256 19.8753C8.58937 19.9653 6.29999 20.9065 4.60687 22.5996C2.43749 24.784 1.49999 27.9378 2.00999 31.4609C2.49749 34.8753 4.27124 38.2503 7.00687 40.9934C9.74249 43.7365 13.125 45.5028 16.5394 45.9903C17.1529 46.079 17.772 46.1241 18.3919 46.1253C21.165 46.1253 23.6062 45.1878 25.395 43.3934C27.0825 41.7059 28.0294 39.4128 28.1194 36.7746C28.1212 36.4014 28.2318 36.0368 28.4376 35.7255C28.6434 35.4141 28.9355 35.1695 29.2781 35.0215C30.2404 34.6454 31.1144 34.074 31.845 33.3434C34.68 30.5084 34.7962 25.774 32.5087 21.5815L44.25 9.84026L44.955 10.5453C45.1683 10.744 45.4503 10.8522 45.7418 10.847C46.0332 10.8419 46.3113 10.7238 46.5174 10.5177C46.7235 10.3116 46.8416 10.0335 46.8468 9.74204C46.8519 9.45059 46.7437 9.16852 46.545 8.95526ZM30.255 31.7534C29.7405 32.2655 29.1258 32.6657 28.4494 32.929C27.7001 33.2386 27.0575 33.7601 26.6002 34.4295C26.1429 35.0989 25.8909 35.8872 25.875 36.6978C25.8056 38.7603 25.0912 40.5209 23.8125 41.8015C22.1456 43.4684 19.6875 44.1659 16.875 43.7628C13.9406 43.3446 11.0081 41.7959 8.61374 39.4034C6.21937 37.0109 4.67624 34.0765 4.25437 31.1421C3.85124 28.3296 4.54874 25.8621 6.21562 24.1953C7.49624 22.9128 9.26249 22.1984 11.3194 22.1328C12.1306 22.1166 12.9195 21.8639 13.589 21.4055C14.2585 20.9472 14.7796 20.3032 15.0881 19.5528C15.3517 18.877 15.7519 18.2629 16.2637 17.749C17.3475 16.6446 18.8569 16.1253 20.52 16.1253C21.989 16.1499 23.434 16.5015 24.75 17.1546L20.5125 21.3978C19.4454 21.4903 18.4269 21.8856 17.5768 22.5372C16.7266 23.1887 16.0802 24.0695 15.7135 25.0759C15.3468 26.0822 15.275 27.1724 15.5066 28.2182C15.7383 29.2639 16.2637 30.2218 17.0211 30.9792C17.7784 31.7366 18.7363 32.262 19.7821 32.4936C20.8279 32.7252 21.918 32.6535 22.9244 32.2868C23.9308 31.92 24.8115 31.2736 25.4631 30.4235C26.1146 29.5734 26.5099 28.5549 26.6025 27.4878L30.8475 23.2503C32.3681 26.404 32.25 29.7528 30.255 31.7534ZM28.3125 19.6878C28.7993 20.1745 29.2487 20.6972 29.6569 21.2515L26.1562 24.7503C25.586 23.4515 24.5488 22.4143 23.25 21.844L26.7412 18.3528C27.2983 18.7571 27.8235 19.2034 28.3125 19.6878ZM21 23.6253C21.8951 23.6253 22.7535 23.9808 23.3865 24.6138C24.0194 25.2467 24.375 26.1052 24.375 27.0003C24.375 27.6678 24.1771 28.3203 23.8062 28.8753C23.4354 29.4303 22.9083 29.8629 22.2916 30.1184C21.6749 30.3738 20.9963 30.4406 20.3416 30.3104C19.6869 30.1802 19.0855 29.8587 18.6135 29.3867C18.1415 28.9147 17.8201 28.3134 17.6898 27.6587C17.5596 27.004 17.6265 26.3254 17.8819 25.7087C18.1373 25.092 18.5699 24.5649 19.1249 24.194C19.68 23.8232 20.3325 23.6253 21 23.6253ZM29.895 18.1053C29.408 17.6196 28.8894 17.1667 28.3425 16.7496L33 12.0903L35.91 15.0003L31.2525 19.6559C30.8348 19.1095 30.382 18.5909 29.8969 18.1034L29.895 18.1053ZM37.4981 13.4178L34.5919 10.5003L39.75 5.34026L42.66 8.25026L37.4981 13.4178ZM17.2969 36.7034C17.4074 36.8064 17.4961 36.9306 17.5575 37.0686C17.619 37.2066 17.6521 37.3555 17.6548 37.5066C17.6574 37.6577 17.6296 37.8077 17.5731 37.9478C17.5165 38.0879 17.4323 38.2151 17.3254 38.3219C17.2186 38.4288 17.0913 38.513 16.9513 38.5696C16.8112 38.6262 16.6611 38.6539 16.5101 38.6513C16.359 38.6486 16.2101 38.6155 16.0721 38.5541C15.9341 38.4926 15.8099 38.4039 15.7069 38.2934L9.70687 32.2934C9.50815 32.0801 9.39996 31.7981 9.40511 31.5066C9.41025 31.2151 9.52832 30.9371 9.73444 30.7309C9.94056 30.5248 10.2186 30.4068 10.5101 30.4016C10.8015 30.3965 11.0836 30.5047 11.2969 30.7034L17.2969 36.7034Z" fill="white"/>
  <path d="M46.8113 8.68892L39.3113 1.18892C39.0298 0.907709 38.6482 0.749824 38.2503 0.75C37.8524 0.750176 37.4709 0.908398 37.1897 1.18986C36.9085 1.47132 36.7506 1.85296 36.7508 2.25083C36.751 2.6487 36.9092 3.03021 37.1907 3.31142L37.6294 3.75017L26.3475 15.0302C22.0744 12.8064 17.2894 12.992 14.3907 15.8889C13.6258 16.6573 13.0266 17.5743 12.63 18.5833C12.5083 18.8569 12.3097 19.0892 12.0584 19.2519C11.807 19.4147 11.5138 19.501 11.2144 19.5002C8.47878 19.592 6.10315 20.5727 4.34253 22.3333C2.07753 24.6039 1.12503 27.8627 1.63878 31.5133C2.13753 35.0064 3.95065 38.4658 6.75003 41.2502C9.5494 44.0345 13.0013 45.8552 16.5 46.3539C17.127 46.4477 17.7598 46.4966 18.3938 46.5002C21.2663 46.5002 23.7994 45.5195 25.6613 43.6577C27.4219 41.897 28.4025 39.5214 28.4944 36.7858C28.4941 36.4857 28.5812 36.1921 28.745 35.9407C28.9088 35.6893 29.1423 35.4911 29.4169 35.3702C30.4264 34.9746 31.3436 34.3752 32.1113 33.6095C35.0081 30.7108 35.1938 25.922 32.97 21.6527L44.25 10.3708L44.6888 10.8095C44.828 10.9489 44.9933 11.0595 45.1753 11.135C45.3573 11.2104 45.5524 11.2493 45.7494 11.2494C45.9464 11.2495 46.1415 11.2108 46.3235 11.1355C46.5055 11.0602 46.671 10.9497 46.8103 10.8105C46.9497 10.6712 47.0603 10.5059 47.1357 10.3239C47.2112 10.142 47.2501 9.9469 47.2502 9.7499C47.2503 9.55289 47.2116 9.3578 47.1363 9.17576C47.0609 8.99371 46.9505 8.82829 46.8113 8.68892ZM30 31.487C29.522 31.9632 28.9507 32.3354 28.3219 32.5802C27.5048 32.9168 26.8037 33.4844 26.3041 34.2133C25.8046 34.9423 25.5284 35.8011 25.5094 36.6845C25.4419 38.6458 24.7594 40.3239 23.5538 41.537C21.9713 43.1177 19.6163 43.7777 16.9238 43.3914C14.0625 42.9845 11.1994 41.4733 8.86315 39.137C6.5269 36.8008 5.01565 33.9377 4.60878 31.0895C4.23378 28.3952 4.88253 26.042 6.46315 24.4595C7.67628 23.2502 9.3544 22.5695 11.3156 22.5002C12.1993 22.4816 13.0582 22.2056 13.7873 21.706C14.5163 21.2065 15.0838 20.505 15.42 19.6877C15.6637 19.0556 16.0359 18.4809 16.5132 18.0002C17.5425 16.9708 18.9506 16.4758 20.5219 16.4758C21.758 16.4957 22.9776 16.7628 24.1088 17.2614L20.3438 21.0358C19.2199 21.1595 18.1538 21.5984 17.2684 22.3017C16.3831 23.005 15.7145 23.9441 15.3397 25.0109C14.9649 26.0777 14.8991 27.2287 15.15 28.3312C15.4009 29.4337 15.9583 30.4429 16.7578 31.2424C17.5573 32.0419 18.5665 32.5993 19.669 32.8502C20.7715 33.1011 21.9225 33.0353 22.9893 32.6605C24.0561 32.2857 24.9952 31.6171 25.6985 30.7318C26.4018 29.8464 26.8407 28.7803 26.9644 27.6564L30.7294 23.8914C31.9519 26.7583 31.7757 29.702 30 31.487ZM28.05 19.9595C28.4463 20.3582 28.8176 20.7809 29.1619 21.2252L26.2707 24.1164C25.7193 23.1148 24.8948 22.2903 23.8932 21.7389L26.7844 18.8458C27.2255 19.191 27.6451 19.5629 28.0407 19.9595H28.05ZM21 24.0002C21.7957 24.0002 22.5587 24.3162 23.1213 24.8789C23.684 25.4415 24 26.2045 24 27.0002C24 27.5935 23.8241 28.1735 23.4944 28.6669C23.1648 29.1602 22.6963 29.5447 22.1481 29.7718C21.5999 29.9989 20.9967 30.0583 20.4148 29.9425C19.8328 29.8268 19.2983 29.541 18.8787 29.1215C18.4591 28.7019 18.1734 28.1674 18.0577 27.5854C17.9419 27.0035 18.0013 26.4003 18.2284 25.8521C18.4555 25.3039 18.84 24.8354 19.3333 24.5058C19.8267 24.1761 20.4067 24.0002 21 24.0002ZM30.1594 17.8408C29.7615 17.4445 29.3435 17.069 28.9069 16.7158L33 12.6208L35.3794 15.0002L31.2863 19.0914C30.9331 18.6548 30.5576 18.2368 30.1613 17.8389L30.1594 17.8408ZM37.5 12.8777L35.1225 10.5002L39.75 5.8708L42.1294 8.25017L37.5 12.8777ZM17.5613 36.437C17.7006 36.5763 17.8112 36.7416 17.8867 36.9236C17.9622 37.1056 18.001 37.3006 18.0011 37.4976C18.0012 37.6946 17.9625 37.8897 17.8872 38.0718C17.8119 38.2538 17.7015 38.4192 17.5622 38.5586C17.423 38.698 17.2576 38.8085 17.0757 38.884C16.8937 38.9595 16.6986 38.9984 16.5016 38.9985C16.3046 38.9986 16.1095 38.9598 15.9275 38.8845C15.7454 38.8092 15.58 38.6988 15.4407 38.5595L9.44065 32.5595C9.15944 32.2781 9.00155 31.8964 9.00173 31.4986C9.0019 31.1007 9.16013 30.7192 9.44159 30.438C9.72305 30.1568 10.1047 29.9989 10.5026 29.9991C10.9004 29.9992 11.2819 30.1575 11.5631 30.4389L17.5613 36.437Z" fill="white"/>
</svg>