<svg xmlns="http://www.w3.org/2000/svg" width="48" height="48" viewBox="0 0 48 48" fill="none">
  <g clip-path="url(#clip0_1276_1999)">
    <path d="M36.6 23.7001C36.801 24.5041 36.993 25.2811 37.158 25.9741C39.309 33.5041 39.699 35.0641 38.169 36.7441C37.5948 37.2947 36.9365 37.7504 36.219 38.0941C35.382 38.4451 34.455 39.0151 33.918 39.7441C33.405 40.6621 33.126 41.6941 33.108 42.7441V46.4941C33.108 46.892 32.95 47.2735 32.6687 47.5548C32.3874 47.8361 32.0059 47.9941 31.608 47.9941C31.2102 47.9941 30.8287 47.8361 30.5474 47.5548C30.2661 47.2735 30.108 46.892 30.108 46.4941V42.7441C30.072 41.0821 30.498 39.4441 31.338 38.0041C32.307 36.5821 33.687 35.8621 34.728 35.3131C35.274 35.0281 35.73 34.7911 35.997 34.5241C36.336 34.1851 35.406 30.7141 34.353 26.8141C32.991 21.7441 31.425 15.9241 32.136 15.0841C32.748 14.3701 33.429 13.9531 34.05 13.5721C34.707 13.1671 35.298 12.8041 35.67 12.1741C36.372 10.9801 36.159 9.87014 35.94 8.72414L35.919 8.63414C35.6948 7.44765 35.1631 6.34078 34.377 5.42414C32.784 3.82214 31.227 2.99414 28.377 2.99414C25.515 2.99414 22.917 5.99414 22.077 8.99414C21.273 11.8741 13.917 35.1541 13.317 36.9841C13.291 37.0641 13.262 37.1441 13.23 37.2241C13.067 37.6472 12.961 38.0901 12.915 38.5411C12.885 38.8381 12.924 39.1411 13.056 39.4111C13.124 39.5511 13.205 39.6831 13.299 39.8071C13.485 40.0591 13.752 40.2271 14.034 40.3621L16.593 41.5801L16.656 41.6101C17.292 41.9161 18.081 42.2911 18.081 42.9841V46.4941C18.081 46.892 17.923 47.2735 17.6417 47.5548C17.3604 47.8361 16.9789 47.9941 16.581 47.9941C16.1832 47.9941 15.8017 47.8361 15.5204 47.5548C15.2391 47.2735 15.081 46.892 15.081 46.4941V44.1841L12.261 42.8341C12.0685 42.734 11.8875 42.6133 11.721 42.4741C10.8043 41.7804 10.1488 40.7972 9.86104 39.6841C9.68525 38.4753 9.84078 37.2415 10.311 36.1141C10.851 34.4641 18.261 10.8841 19.071 8.21414C20.391 4.13414 24.051 -0.00585938 28.251 -0.00585938C32.421 -0.00585938 34.251 1.08014 36.381 3.20414C37.701 4.58414 38.58 6.32414 38.907 8.21414C39.237 10.0951 38.922 12.6541 38.211 13.7641C37.581 14.7481 36.63 15.4111 35.697 16.0621L35.337 16.3111L35.007 16.5211C35.169 18.0211 35.913 21.0211 36.579 23.6911L36.6 23.7001ZM13.23 10.6801L10.947 9.93314C10.7585 9.84219 10.5956 9.7057 10.473 9.53599C10.3504 9.36629 10.2721 9.16872 10.245 8.96114C10.1131 7.95127 10.221 6.92451 10.56 5.96414C10.818 5.05814 11.28 4.22114 11.916 3.52214C12.0391 3.36585 12.1945 3.23802 12.3716 3.1474C12.5487 3.05679 12.7433 3.00553 12.942 2.99714C13.122 2.99914 13.297 3.02914 13.467 3.08714L15.657 3.81914C15.9261 3.90716 16.1528 4.09217 16.293 4.33814C16.683 5.02214 16.431 6.16514 16.23 7.07714L16.221 7.12214C16.1105 7.61917 15.9579 8.10591 15.765 8.57714L15.741 8.63714C15.441 9.36014 15.105 10.1851 14.562 10.5691C14.3597 10.7104 14.1188 10.7858 13.872 10.7851C13.6537 10.7827 13.4371 10.7493 13.23 10.6801ZM10.65 19.0501L8.36704 18.3031C8.16438 18.2278 7.98452 18.1015 7.84476 17.9366C7.705 17.7716 7.61005 17.5734 7.56904 17.3611C7.43005 16.3514 7.53814 15.3229 7.88404 14.3641C8.16604 13.4701 8.63704 12.6481 9.27004 11.9551C9.39567 11.7985 9.55148 11.6686 9.72824 11.5733C9.905 11.4779 10.0991 11.4191 10.299 11.4001C10.459 11.4041 10.615 11.4301 10.767 11.4781L13.137 12.2521C13.407 12.3421 13.632 12.5251 13.77 12.7711C14.163 13.4611 13.884 14.5921 13.662 15.4951L13.59 15.7861C13.5146 16.0915 13.4153 16.3904 13.293 16.6801L13.152 17.0161C12.852 17.7301 12.516 18.5371 11.982 18.9271C11.7818 19.0748 11.5407 19.1565 11.292 19.1611C11.0737 19.1587 10.8571 19.1193 10.65 19.0501ZM8.31004 27.5101L5.71504 26.6611C5.50468 26.5916 5.31417 26.4724 5.15961 26.3136C5.00504 26.1549 4.89097 25.9613 4.82704 25.7491C4.69506 24.7393 4.80298 23.7125 5.14204 22.7521C5.39704 21.8341 5.86204 20.9881 6.49804 20.2801C6.75 19.9818 7.10839 19.7934 7.49704 19.7551C7.69574 19.7603 7.89271 19.7936 8.08204 19.8541L10.335 20.6071C10.605 20.6881 10.83 20.8681 10.971 21.1081C11.106 21.3391 11.1 21.6211 11.097 21.8731V21.9091C11.094 22.1161 10.986 23.1691 10.842 24.0271C10.7669 24.432 10.6503 24.8281 10.494 25.2091L10.44 25.3621C10.173 26.0851 9.87004 26.9221 9.33004 27.3001C9.12771 27.4414 8.88678 27.5168 8.64004 27.5161L8.31004 27.5101ZM7.86004 28.9501L5.55004 28.1941C5.36071 28.1336 5.16374 28.1003 4.96504 28.0951C4.77093 28.1073 4.58158 28.1604 4.40942 28.2509C4.23725 28.3413 4.08616 28.4672 3.96604 28.6201C3.3241 29.3247 2.85927 30.1721 2.61004 31.0921C2.27051 32.0534 2.16258 33.0813 2.29504 34.0921C2.31358 34.3217 2.3947 34.5418 2.52957 34.7285C2.66444 34.9152 2.84791 35.0614 3.06004 35.1511L5.34004 35.9011C5.55204 35.9671 5.76704 36.0021 5.98504 36.0061C6.23145 36.0077 6.47236 35.9333 6.67504 35.7931C7.24204 35.3911 7.57504 34.5091 7.86904 33.7411L7.88704 33.6901C8.07856 33.1942 8.2369 32.6861 8.36104 32.1691C8.57104 31.2631 8.80504 30.1291 8.43904 29.4631C8.30744 29.234 8.10392 29.0548 7.86004 28.9531V28.9501Z" fill="white"/>
  </g>
  <defs>
    <clipPath id="clip0_1276_1999">
      <rect width="48" height="48" fill="white"/>
    </clipPath>
  </defs>
</svg>