<svg xmlns="http://www.w3.org/2000/svg" width="16" height="16" viewBox="0 0 40 40" fill="none">
  <path d="M26.0001 21.8001C28.1062 22.2287 30.2944 21.9674 32.2404 21.0547C34.1863 20.142 35.7865 18.6267 36.8036 16.7333C37.8207 14.8398 38.2007 12.6691 37.8873 10.5427C37.5738 8.41632 36.5836 6.44753 35.0634 4.92811C33.5432 3.40869 31.5739 2.41949 29.4474 2.10715C27.3209 1.7948 25.1503 2.17591 23.2574 3.19401C21.3645 4.21211 19.85 5.813 18.9383 7.75942C18.0266 9.70584 17.7664 11.8942 18.1961 14.0001M26.0001 21.8001L18.1961 14.0021L3.17005 31.1701C2.41949 31.9199 1.99751 32.9371 1.99695 33.998C1.99667 34.5233 2.09986 35.0435 2.30063 35.529C2.50139 36.0144 2.7958 36.4555 3.16705 36.8271C3.5383 37.1988 3.97911 37.4937 4.46432 37.6949C4.94953 37.8962 5.46963 38 5.99493 38.0002C7.05582 38.0008 8.07349 37.5799 8.82405 36.8301L26.0001 21.8001Z" stroke="white" stroke-width="3.5" stroke-linecap="round" stroke-linejoin="round"/>
</svg>