<svg xmlns="http://www.w3.org/2000/svg" width="48" height="48" viewBox="0 0 48 48" fill="none">
  <g clip-path="url(#clip0_1137_1988)">
    <path fill-rule="evenodd" clip-rule="evenodd" d="M48 4.49975C48.0005 4.20269 47.9128 3.91216 47.748 3.66499C47.5832 3.41783 47.3488 3.22515 47.0744 3.1114C46.7999 2.99765 46.4979 2.96794 46.2066 3.02604C45.9153 3.08414 45.6478 3.22743 45.438 3.43775L38.718 10.1578C37.1852 11.6898 35.3658 12.9048 33.3634 13.7336C31.361 14.5623 29.215 14.9885 27.048 14.9878H27.003V13.4878C27.003 13.0899 26.8449 12.7084 26.5636 12.4271C26.2823 12.1458 25.9008 11.9878 25.503 11.9878C25.1051 11.9878 24.7236 12.1458 24.4423 12.4271C24.161 12.7084 24.003 13.0899 24.003 13.4878V14.9878H21.003V13.4878C21.003 13.0899 20.8449 12.7084 20.5636 12.4271C20.2823 12.1458 19.9008 11.9878 19.503 11.9878C19.1051 11.9878 18.7236 12.1458 18.4423 12.4271C18.161 12.7084 18.003 13.0899 18.003 13.4878V14.9878H8.13296L7.51196 14.3668C6.94948 13.8041 6.18655 13.4879 5.39096 13.4878H3.01196C2.21631 13.4878 1.45325 13.8038 0.890643 14.3664C0.328033 14.929 0.0119629 15.6921 0.0119629 16.4878V25.4878C0.0119629 26.2834 0.328033 27.0465 0.890643 27.6091C1.45325 28.1717 2.21631 28.4878 3.01196 28.4878H5.39096C6.18596 28.4878 6.95096 28.1728 7.51196 27.6088L8.13296 26.9878H11.313C9.83702 28.6378 9.02102 30.7739 9.02096 32.9878C9.02096 37.9678 13.041 41.9878 18.021 41.9878H27.021C32.001 41.9878 36.021 37.9678 36.021 32.9878C36.021 32.5899 35.8629 32.2084 35.5816 31.9271C35.3003 31.6458 34.9188 31.4878 34.521 31.4878C34.1231 31.4878 33.7416 31.6458 33.4603 31.9271C33.179 32.2084 33.021 32.5899 33.021 32.9878C33.021 36.2878 30.336 38.9878 27.021 38.9878H18.021C14.721 38.9878 12.021 36.3028 12.021 32.9878C12.021 29.6878 14.694 26.9878 17.991 26.9878H18.015V34.4878C18.015 34.8856 18.173 35.2671 18.4543 35.5484C18.7356 35.8297 19.1171 35.9878 19.515 35.9878C19.9128 35.9878 20.2943 35.8297 20.5756 35.5484C20.8569 35.2671 21.015 34.8856 21.015 34.4878V26.9878H24.015V34.4878C24.015 34.8856 24.173 35.2671 24.4543 35.5484C24.7356 35.8297 25.1171 35.9878 25.515 35.9878C25.9128 35.9878 26.2943 35.8297 26.5756 35.5484C26.8569 35.2671 27.015 34.8856 27.015 34.4878V26.9878H27.06C31.44 26.9878 35.64 28.7248 38.73 31.8178L45.45 38.5378C45.6592 38.7496 45.9268 38.8942 46.2186 38.9531C46.5104 39.0121 46.8132 38.9827 47.0882 38.8686C47.3633 38.7546 47.598 38.5612 47.7626 38.3131C47.9271 38.065 48.014 37.7735 48.012 37.4758V4.47575L48 4.49975ZM25.5 23.9998H27.033C32.193 23.9998 37.173 26.0548 40.833 29.6998L45.003 33.8698V8.09975L40.833 12.2698C39.0199 14.0798 36.868 15.5148 34.5001 16.4929C32.1322 17.4709 29.5949 17.9728 27.033 17.9698H8.10296C7.30738 17.9696 6.54444 17.6534 5.98196 17.0908L5.36096 16.4698H2.98196V25.4698H5.36096L5.98196 24.8488C6.54444 24.2861 7.30738 23.9699 8.10296 23.9698H25.482L25.5 23.9998Z" fill="white"/>
  </g>
  <defs>
    <clipPath id="clip0_1137_1988">
      <rect width="48" height="48" fill="white"/>
    </clipPath>
  </defs>
</svg>