<svg xmlns="http://www.w3.org/2000/svg" width="48" height="48" viewBox="0 0 48 48" fill="none">
  <g clip-path="url(#clip0_1276_1994)">
    <path d="M17.04 25.5802L21.18 29.8202M23.78 22.8402L34.76 11.5802M39.36 13.3202C39.1549 13.5128 38.9136 13.6626 38.65 13.7609C38.3865 13.8592 38.106 13.9041 37.8249 13.8929C37.5438 13.8817 37.2678 13.8147 37.0128 13.6958C36.7579 13.5769 36.5292 13.4084 36.34 13.2002L33.2 10.0002C32.7838 9.5989 32.5389 9.05216 32.5165 8.47438C32.4942 7.8966 32.6961 7.33256 33.08 6.90024C33.38 6.49224 33.8 6.18424 34.28 6.02024L43.82 3.10024C44.1745 3.00393 44.5487 3.0071 44.9015 3.10942C45.2543 3.21173 45.5721 3.40922 45.82 3.68024C46.0197 3.85398 46.183 4.06564 46.3003 4.30294C46.4176 4.54024 46.4866 4.79847 46.5033 5.06264C46.5201 5.32682 46.4842 5.59169 46.3978 5.8419C46.3114 6.09211 46.1762 6.32268 46 6.52024L39.36 13.3202ZM22 21.0602C21.3738 20.3906 20.9094 19.5862 20.6424 18.7091C20.3754 17.8319 20.3131 16.9053 20.46 16.0002C20.7 14.5952 21.1803 13.2421 21.88 12.0002C22.0367 11.7138 22.1322 11.398 22.1606 11.0728C22.189 10.7476 22.1496 10.42 22.0449 10.1108C21.9402 9.80162 21.7725 9.5175 21.5523 9.27642C21.3322 9.03534 21.0645 8.84256 20.766 8.71024C20.3492 8.53102 19.8875 8.48381 19.443 8.575C18.9985 8.66618 18.5926 8.89137 18.28 9.22024C16.391 11.0582 15.0954 13.4195 14.56 16.0002C14.14 18.1002 12.56 20.9602 10.56 20.9802C9.33126 20.987 8.11653 21.242 6.98878 21.73C5.86102 22.218 4.84351 22.9288 3.99732 23.8198C3.15114 24.7108 2.49374 25.7636 2.0646 26.9151C1.63546 28.0665 1.44343 29.2928 1.50004 30.5202C1.52905 33.7357 2.82223 36.8106 5.10004 39.0802L7.26004 41.3202C8.33482 42.4638 9.62903 43.3791 11.0654 44.0113C12.5018 44.6436 14.0508 44.9799 15.62 45.0002C16.8379 45.0217 18.0476 44.7989 19.1779 44.3452C20.3083 43.8914 21.3363 43.2158 22.2012 42.3583C23.0662 41.5008 23.7507 40.4787 24.2142 39.3523C24.6777 38.226 24.9109 37.0182 24.9 35.8002C24.9 33.5802 27.3 32.2002 29.36 32.2802C30.5634 32.3779 31.7733 32.2019 32.899 31.7655C34.0247 31.3291 35.037 30.6435 35.86 29.7602C36.1458 29.4548 36.3404 29.0754 36.4217 28.665C36.5029 28.2547 36.4677 27.8298 36.3199 27.4384C36.1721 27.0471 35.9177 26.705 35.5854 26.4508C35.2532 26.1966 34.8564 26.0405 34.44 26.0002C27.96 25.4602 26.58 25.6802 24.84 23.8802L22 21.0602Z" stroke="#CACACA" stroke-width="3" stroke-linecap="round" stroke-linejoin="round"/>
    <path d="M9.84009 34.1198C9.84196 34.9211 10.152 35.691 10.7061 36.2698C10.9762 36.5531 11.3009 36.7785 11.6607 36.9326C12.0204 37.0866 12.4077 37.1661 12.7991 37.1661C13.1904 37.1661 13.5777 37.0866 13.9375 36.9326C14.2973 36.7785 14.622 36.5531 14.8921 36.2698C15.1691 35.9868 15.3873 35.6516 15.5341 35.2838C15.8344 34.5369 15.8344 33.7028 15.5341 32.9558C15.3879 32.5882 15.1704 32.2531 14.8941 31.9698C14.6234 31.6876 14.2985 31.463 13.9388 31.3096C13.5791 31.1562 13.1921 31.0771 12.8011 31.0771C12.4101 31.0771 12.0231 31.1562 11.6634 31.3096C11.3037 31.463 10.9788 31.6876 10.7081 31.9698C10.154 32.5487 9.84196 33.3185 9.84009 34.1198Z" stroke="#CACACA" stroke-width="3" stroke-linecap="round" stroke-linejoin="round"/>
  </g>
  <defs>
    <clipPath id="clip0_1276_1994">
      <rect width="48" height="48" fill="white"/>
    </clipPath>
  </defs>
</svg>